{"glyphs":{"0":{"ha":694,"x_min":23,"x_max":670,"o":"m 670 357 q 589 102 670 203 q 349 -12 500 -12 q 109 95 197 -12 q 23 355 24 197 q 113 609 23 507 q 347 711 203 711 q 583 604 491 711 q 670 357 670 505 m 582 357 q 517 551 582 471 q 347 631 452 631 q 172 543 240 631 q 111 355 111 464 q 172 164 111 247 q 346 72 240 72 q 526 161 463 72 q 582 357 582 237 z "},"1":{"ha":694,"x_min":170,"x_max":457,"o":"m 457 0 l 351 0 l 351 621 l 170 621 l 170 704 l 457 704 l 457 0 z "},"2":{"ha":694,"x_min":115,"x_max":628,"o":"m 118 0 l 117 107 l 346 304 q 439 401 412 362 q 469 505 471 449 q 433 589 468 555 q 349 624 399 624 q 179 524 255 624 l 115 591 q 346 720 225 720 q 509 662 444 720 q 575 506 575 604 q 453 264 575 366 l 266 107 l 628 107 l 628 0 l 118 0 z "},"3":{"ha":694,"x_min":99,"x_max":625,"o":"m 320 -248 q 99 -141 193 -248 l 152 -68 q 327 -153 241 -152 q 462 -102 412 -153 q 511 45 511 -52 q 469 167 511 115 q 323 229 418 229 q 229 231 297 229 l 229 317 q 321 327 292 317 q 452 498 452 368 q 416 590 452 555 q 332 625 381 625 q 183 529 239 625 l 113 589 q 330 722 221 722 q 486 669 425 722 q 556 500 555 608 q 528 384 556 438 q 446 297 498 326 q 576 208 528 281 q 625 45 625 134 q 541 -165 625 -83 q 320 -248 457 -248 z "},"4":{"ha":694,"x_min":38,"x_max":652,"o":"m 423 510 l 164 106 l 423 106 l 423 510 m 514 0 l 514 -233 l 423 -233 l 423 0 l 38 0 l 38 106 l 433 707 l 514 707 l 514 106 l 652 106 l 652 0 l 514 0 z "},"5":{"ha":811,"x_min":72,"x_max":642,"o":"m 331 -248 q 181 -210 256 -248 q 72 -117 106 -171 l 121 -53 q 334 -157 205 -157 q 481 -84 429 -157 q 530 73 530 -19 q 475 218 530 161 q 357 270 425 270 q 193 201 279 270 l 99 243 l 99 705 l 579 705 l 579 621 l 205 621 l 205 311 q 396 381 274 380 q 559 302 484 381 q 642 81 642 214 q 559 -140 642 -43 q 331 -248 468 -248 z "},"6":{"ha":694,"x_min":34,"x_max":658,"o":"m 359 517 q 220 458 281 517 q 155 301 155 396 q 206 137 155 206 q 361 58 264 58 q 502 132 441 58 q 559 282 559 201 q 502 453 559 389 q 359 517 445 517 m 361 -31 q 134 58 221 -31 q 34 370 33 163 q 133 749 34 601 q 445 913 245 913 q 655 860 553 913 l 616 774 q 444 821 526 821 q 239 719 321 821 q 152 467 157 617 q 384 612 254 610 q 572 522 492 612 q 658 288 658 427 q 570 65 658 161 q 361 -31 481 -31 z "},"7":{"ha":694,"x_min":107,"x_max":625,"o":"m 625 616 l 248 -235 l 140 -205 l 506 617 l 107 617 l 107 700 l 625 700 l 625 616 z "},"8":{"ha":694,"x_min":60,"x_max":642,"o":"m 346 452 q 224 369 260 404 q 168 235 168 312 q 236 88 168 140 q 353 47 289 47 q 484 98 433 47 q 536 233 536 148 q 479 378 536 324 q 346 452 439 415 m 339 845 q 198 713 199 845 q 336 547 198 609 q 487 708 488 606 q 339 845 488 845 m 345 -39 q 149 27 229 -39 q 60 231 60 102 q 106 381 60 309 q 251 500 159 458 q 144 586 175 549 q 104 708 103 637 q 180 873 104 817 q 349 922 245 922 q 509 869 441 922 q 582 718 582 811 q 431 503 582 583 q 642 233 642 415 q 571 45 642 117 q 345 -39 491 -39 z "},"9":{"ha":694,"x_min":39,"x_max":663,"o":"m 324 620 q 190 540 245 620 q 140 387 140 469 q 193 235 140 304 q 330 160 248 160 q 484 229 420 160 q 547 391 547 297 q 485 550 547 480 q 324 620 423 620 m 308 -273 q 46 -174 146 -273 l 85 -90 q 320 -180 184 -182 q 505 -33 435 -180 q 564 241 562 90 q 469 117 514 152 q 326 68 411 66 q 118 167 202 69 q 39 382 39 260 q 114 610 39 518 q 324 708 194 709 q 548 620 454 708 q 663 313 663 513 q 593 -60 663 98 q 308 -273 498 -273 z "},"\u0000":{"ha":0,"x_min":0,"x_max":0,"o":""},"\f":{"ha":378,"x_min":0,"x_max":0,"o":""}," ":{"ha":378,"x_min":0,"x_max":0,"o":""},"!":{"ha":326,"x_min":79,"x_max":239,"o":"m 224 267 l 106 267 l 106 981 l 224 981 l 224 267 m 157 -18 q 101 5 123 -18 q 79 61 79 27 q 101 118 79 95 q 157 141 123 141 q 216 119 193 141 q 239 61 239 96 q 216 4 239 26 q 157 -18 193 -18 z "},"\"":{"ha":456,"x_min":96,"x_max":423,"o":"m 358 945 q 292 868 292 945 q 312 762 292 834 q 350 659 332 690 l 369 659 q 404 762 384 690 q 423 868 423 834 q 358 945 423 945 m 161 945 q 96 868 96 945 q 116 762 96 834 q 155 659 136 690 l 172 659 q 207 762 187 690 q 227 868 227 834 q 161 945 227 945 z "},"#":{"ha":743,"x_min":96,"x_max":618,"o":"m 618 777 l 507 765 l 507 656 l 617 669 l 617 595 l 506 585 l 506 450 l 426 442 l 427 576 l 316 564 l 315 429 l 236 420 l 237 556 l 96 540 l 96 613 l 237 628 l 237 738 l 98 722 l 98 795 l 239 810 l 239 914 l 317 922 l 316 818 l 429 829 l 429 933 l 510 944 l 507 837 l 618 850 l 618 777 m 316 746 l 316 636 l 427 648 l 427 757 l 316 746 z "},"$":{"ha":743,"x_min":107,"x_max":635,"o":"m 437 -8 l 437 -138 l 312 -138 l 312 -12 q 107 96 171 7 l 172 182 q 365 90 251 88 q 474 127 431 90 q 517 232 517 165 q 452 336 517 298 q 328 385 434 347 q 194 458 236 419 q 133 623 133 518 q 183 758 133 701 q 312 834 233 815 l 312 959 l 437 959 l 437 838 q 602 757 521 823 l 541 677 q 382 742 464 742 q 258 616 259 742 q 387 499 258 543 q 568 415 525 452 q 635 235 635 358 q 437 -8 635 34 z "},"%":{"ha":743,"x_min":31,"x_max":708,"o":"m 179 570 q 69 616 107 570 q 31 738 31 663 q 71 855 31 807 q 179 903 111 903 q 288 855 247 903 q 330 738 330 807 q 292 618 330 663 q 179 570 252 570 m 149 -109 l 46 -73 l 570 872 l 665 836 l 149 -109 m 557 -3 q 443 45 481 -3 q 404 170 404 92 q 446 290 404 240 q 557 339 487 339 q 667 290 627 339 q 708 170 708 240 q 673 47 708 94 q 557 -3 632 -3 m 178 825 q 129 793 146 825 q 115 734 115 768 q 130 675 115 701 q 179 644 148 644 q 243 734 243 644 q 228 793 243 768 q 178 825 209 825 m 556 258 q 506 225 524 258 q 491 164 492 199 q 557 75 491 75 q 605 106 590 75 q 621 164 620 130 q 605 225 621 199 q 556 258 589 258 z "},"&":{"ha":770,"x_min":35,"x_max":730,"o":"m 244 426 q 136 247 136 366 q 184 129 136 174 q 308 84 233 84 q 463 164 400 84 q 244 426 308 321 m 665 5 q 533 92 610 23 q 315 -12 431 -12 q 118 50 194 -12 q 35 235 35 118 q 79 387 35 316 q 197 499 123 458 q 134 673 134 585 q 199 827 134 766 q 357 888 264 888 q 566 789 473 888 l 500 722 q 347 800 438 799 q 244 693 244 800 q 286 548 244 631 q 441 582 359 579 l 460 498 q 339 475 387 498 q 518 252 448 324 q 537 350 537 321 q 524 438 537 382 l 621 446 q 631 346 631 384 q 600 179 631 270 q 730 92 636 137 l 665 5 z "},"'":{"ha":269,"x_min":84,"x_max":216,"o":"m 152 948 q 84 871 85 948 q 109 761 84 834 q 153 659 132 684 q 195 762 175 696 q 216 871 216 829 q 152 948 216 948 z "},"(":{"ha":441,"x_min":64,"x_max":334,"o":"m 241 -191 q 64 449 64 115 q 241 1088 64 798 l 330 1046 q 184 449 186 709 q 228 138 184 289 q 334 -151 248 64 l 241 -191 z "},")":{"ha":438,"x_min":109,"x_max":373,"o":"m 201 -191 l 109 -151 q 214 136 194 69 q 258 444 259 286 q 113 1046 258 713 l 201 1088 q 373 453 373 806 q 201 -191 373 106 z "},"*":{"ha":381,"x_min":27,"x_max":340,"o":"m 304 659 l 213 743 l 218 620 l 153 620 l 157 743 l 65 659 l 27 720 l 140 791 l 30 861 l 65 922 l 160 837 l 155 963 l 220 962 l 213 837 l 304 922 l 339 861 l 232 792 l 340 720 l 304 659 z "},"+":{"ha":690,"x_min":73,"x_max":620,"o":"m 388 392 l 388 133 l 302 133 l 302 392 l 73 392 l 73 479 l 302 479 l 302 724 l 388 724 l 388 479 l 620 479 l 620 392 l 388 392 z "},",":{"ha":353,"x_min":91,"x_max":279,"o":"m 91 -100 l 152 -117 q 279 167 278 49 l 144 167 q 127 31 144 114 q 91 -100 111 -57 z "},"-":{"ha":528,"x_min":69,"x_max":458,"o":"m 69 370 l 69 500 l 458 500 l 458 370 l 69 370 z "},".":{"ha":323,"x_min":84,"x_max":270,"o":"m 178 -12 q 111 18 137 -12 q 84 90 84 49 q 111 160 84 130 q 178 190 137 190 q 244 159 218 190 q 270 90 270 129 q 244 18 270 49 q 178 -12 218 -12 z "},"/":{"ha":534,"x_min":18,"x_max":541,"o":"m 129 -236 l 18 -213 l 429 978 l 541 954 l 129 -236 z "},":":{"ha":338,"x_min":92,"x_max":278,"o":"m 184 500 q 119 531 145 500 q 92 601 92 562 q 119 672 92 642 q 184 703 146 703 q 252 672 225 703 q 278 601 278 642 q 252 530 278 560 q 184 500 225 500 m 184 -12 q 119 18 145 -12 q 92 90 92 49 q 119 160 92 130 q 184 190 146 190 q 252 159 225 190 q 278 90 278 129 q 252 18 278 49 q 184 -12 225 -12 z "},";":{"ha":353,"x_min":91,"x_max":296,"o":"m 205 502 q 136 531 164 502 q 109 600 109 560 q 136 670 109 640 q 205 700 164 700 q 271 670 245 700 q 296 600 296 640 q 270 530 296 559 q 205 502 244 502 m 91 -100 l 152 -117 q 279 167 278 49 l 144 167 q 127 31 144 114 q 91 -100 111 -57 z "},"<":{"ha":507,"x_min":38,"x_max":444,"o":"m 183 396 l 444 62 l 342 58 l 38 401 l 340 735 l 444 731 l 183 396 z "},"=":{"ha":612,"x_min":71,"x_max":540,"o":"m 71 399 l 71 488 l 540 488 l 540 399 l 71 399 m 71 187 l 71 278 l 540 278 l 540 187 l 71 187 z "},">":{"ha":506,"x_min":34,"x_max":439,"o":"m 137 58 l 35 62 l 294 396 l 34 731 l 137 735 l 439 401 l 137 58 z "},"?":{"ha":671,"x_min":53,"x_max":571,"o":"m 476 515 q 408 463 453 499 q 366 401 382 441 q 343 331 363 396 q 346 263 340 323 l 250 263 q 243 351 243 319 q 271 464 243 416 q 351 552 294 505 q 423 618 408 600 q 463 707 463 663 q 424 807 463 768 q 324 846 385 846 q 146 701 194 846 l 53 750 q 320 945 132 945 q 498 878 426 945 q 571 705 571 810 q 476 515 571 593 m 304 -18 q 248 5 270 -18 q 227 61 227 27 q 249 118 227 95 q 304 141 271 141 q 363 119 339 141 q 387 61 387 96 q 363 4 387 26 q 304 -18 339 -18 z "},"@":{"ha":1402,"x_min":73,"x_max":1344,"o":"m 685 -323 q 244 -126 420 -323 q 73 331 73 64 q 260 784 73 598 q 712 970 446 970 q 1135 804 978 970 q 1291 372 1291 639 q 1191 111 1291 224 q 1072 23 1146 61 q 929 -16 993 -18 q 845 26 875 -16 q 822 121 818 65 q 589 -15 718 -15 q 377 278 376 -15 q 472 566 377 434 q 735 711 579 712 q 827 694 783 711 q 903 640 880 674 l 907 697 l 1008 697 l 920 130 q 937 98 921 113 q 971 83 952 84 q 1044 113 994 81 q 1109 163 1089 138 q 1169 262 1142 198 q 1196 372 1196 327 q 1067 736 1196 598 q 712 873 937 873 q 328 715 486 873 q 170 331 170 557 q 311 -58 170 103 q 685 -227 460 -227 q 1008 -171 879 -227 q 1252 45 1158 -106 l 1344 -15 q 1061 -263 1240 -190 q 685 -323 916 -323 m 886 553 q 818 606 868 589 q 731 625 774 624 q 597 566 669 625 q 491 298 491 475 q 509 167 491 206 q 637 90 541 90 q 762 156 699 90 q 837 285 826 222 l 886 553 z "},"A":{"ha":788,"x_min":41,"x_max":747,"o":"m 629 -14 l 547 248 l 235 248 l 155 -14 l 41 0 l 336 909 l 448 909 l 747 5 l 629 -14 m 391 765 l 264 345 l 519 345 l 391 765 z "},"B":{"ha":727,"x_min":88,"x_max":654,"o":"m 369 0 l 88 3 l 88 890 l 317 894 q 336 895 320 894 q 355 895 336 895 q 525 845 463 895 q 591 684 591 789 q 533 525 591 567 q 442 487 502 505 q 654 255 655 441 q 572 62 654 130 q 369 0 496 -1 m 327 812 q 212 808 308 812 l 212 521 l 307 519 q 429 556 381 518 q 481 670 481 598 q 327 812 481 812 m 339 433 l 212 433 l 212 94 l 342 94 q 534 256 534 94 q 477 385 534 336 q 339 433 420 433 z "},"C":{"ha":747,"x_min":43,"x_max":707,"o":"m 431 -11 q 137 133 243 -11 q 43 457 42 260 q 141 774 43 646 q 435 917 250 914 q 589 887 500 917 q 699 841 658 864 l 646 731 q 442 808 519 808 q 228 677 305 808 q 168 441 168 572 q 232 213 168 311 q 430 100 305 100 q 652 160 548 100 l 707 69 q 574 8 625 23 q 431 -11 510 -11 z "},"D":{"ha":784,"x_min":88,"x_max":741,"o":"m 298 -3 q 193 0 263 -3 q 88 3 122 3 l 88 894 q 290 899 184 898 q 632 792 525 899 q 741 449 739 685 q 629 115 742 232 q 298 -3 515 -3 m 609 433 q 327 810 609 810 q 212 807 286 810 l 212 103 l 336 103 q 541 206 468 103 q 609 433 609 297 z "},"E":{"ha":678,"x_min":88,"x_max":586,"o":"m 212 789 l 212 521 l 562 521 l 562 416 l 212 418 l 212 106 l 582 107 l 582 0 l 88 0 l 88 888 l 586 888 l 586 789 l 212 789 z "},"F":{"ha":680,"x_min":88,"x_max":587,"o":"m 212 789 l 212 521 l 564 521 l 564 416 l 212 416 l 212 0 l 88 0 l 88 888 l 587 888 l 587 789 l 212 789 z "},"G":{"ha":807,"x_min":43,"x_max":720,"o":"m 720 84 q 582 15 637 34 q 423 -8 513 -8 q 138 134 243 -8 q 43 449 43 262 q 133 755 42 618 q 418 917 240 917 q 566 894 484 917 q 699 833 655 871 l 647 730 q 430 808 532 808 q 227 674 298 808 q 170 441 170 568 q 229 216 170 313 q 419 100 300 100 q 598 142 518 100 l 598 418 l 401 418 l 401 521 l 720 521 l 720 84 z "},"H":{"ha":807,"x_min":88,"x_max":720,"o":"m 598 0 l 598 416 l 212 416 l 212 0 l 88 0 l 88 888 l 212 888 l 212 521 l 598 521 l 598 888 l 720 888 l 720 0 l 598 0 z "},"I":{"ha":298,"x_min":88,"x_max":212,"o":"m 88 0 l 88 891 l 212 891 l 212 0 l 88 0 z "},"J":{"ha":298,"x_min":-206,"x_max":212,"o":"m 212 96 q -66 -221 212 -220 q -206 -152 -148 -221 l -141 -58 q -49 -107 -95 -107 q 88 84 87 -107 l 88 886 l 212 886 l 212 96 z "},"K":{"ha":736,"x_min":88,"x_max":731,"o":"m 583 -30 q 277 384 461 133 l 212 286 l 212 0 l 88 0 l 88 888 l 212 888 l 212 452 q 559 924 435 746 l 655 854 q 355 465 540 712 q 540 222 412 372 q 731 3 597 156 l 583 -30 z "},"L":{"ha":696,"x_min":88,"x_max":609,"o":"m 88 0 l 88 890 l 212 890 l 212 100 l 609 100 l 609 0 l 88 0 z "},"M":{"ha":1101,"x_min":103,"x_max":998,"o":"m 875 0 l 875 709 l 605 -1 l 490 -1 l 217 715 l 217 0 l 103 0 l 103 891 l 279 891 l 555 176 l 836 891 l 998 891 l 998 0 l 875 0 z "},"N":{"ha":807,"x_min":88,"x_max":720,"o":"m 633 -15 q 203 644 509 210 l 203 1 l 88 0 l 88 894 l 190 894 l 606 263 l 606 888 l 720 888 l 720 15 l 633 -15 z "},"O":{"ha":894,"x_min":45,"x_max":852,"o":"m 444 -22 q 141 119 250 -22 q 45 448 43 245 q 153 762 45 636 q 453 898 267 897 q 749 762 637 898 q 852 448 852 636 q 749 118 852 248 q 444 -22 637 -22 m 450 795 q 232 680 315 795 q 160 435 160 576 q 232 197 160 300 q 444 84 312 84 q 659 195 575 84 q 738 433 736 298 q 665 678 738 572 q 450 795 585 795 z "},"P":{"ha":637,"x_min":88,"x_max":593,"o":"m 339 366 q 212 372 286 366 l 212 0 l 88 0 l 88 888 l 350 894 q 528 824 463 897 q 593 637 593 751 q 521 446 593 526 q 339 366 449 366 m 334 812 l 212 810 l 212 458 l 320 460 q 430 514 389 461 q 471 633 471 563 q 334 812 471 815 z "},"Q":{"ha":913,"x_min":43,"x_max":917,"o":"m 844 -98 l 674 52 q 442 -22 570 -22 q 141 121 250 -22 q 43 449 42 250 q 152 764 43 639 q 453 898 267 897 q 747 765 637 898 q 850 453 850 642 q 829 281 850 365 q 754 127 803 176 l 917 -15 l 844 -98 m 449 793 q 232 680 313 793 q 159 438 159 578 q 229 201 159 305 q 438 84 309 84 q 586 129 514 84 l 481 221 l 557 301 l 663 208 q 736 439 735 309 q 665 681 736 581 q 449 793 585 793 z "},"R":{"ha":735,"x_min":88,"x_max":730,"o":"m 575 -14 q 411 190 505 57 q 273 404 347 281 l 212 401 l 212 0 l 88 0 l 88 890 l 368 894 q 609 648 610 891 q 551 491 608 552 q 396 411 494 430 q 545 212 442 347 q 730 14 601 140 l 575 -14 m 332 810 l 212 807 l 212 495 l 301 495 q 448 532 401 495 q 495 663 495 568 q 332 810 495 814 z "},"S":{"ha":682,"x_min":57,"x_max":625,"o":"m 332 -14 q 180 14 254 -14 q 57 102 99 45 l 121 190 q 336 92 205 91 q 460 134 414 92 q 506 254 506 176 q 396 393 506 347 q 191 477 328 420 q 84 688 83 545 q 168 861 85 793 q 353 925 244 925 q 587 841 480 925 l 529 753 q 353 819 456 819 q 212 680 212 819 q 355 543 212 591 q 555 452 507 491 q 625 256 625 391 q 544 57 625 127 q 332 -14 463 -14 z "},"T":{"ha":743,"x_min":43,"x_max":700,"o":"m 442 795 l 442 0 l 317 0 l 317 795 l 43 795 l 43 887 l 700 887 l 700 795 l 442 795 z "},"U":{"ha":792,"x_min":88,"x_max":705,"o":"m 705 320 q 621 71 705 165 q 385 -23 536 -23 q 160 76 237 -23 q 88 320 88 168 l 88 888 l 212 888 l 212 320 q 388 80 212 81 q 536 153 487 80 q 581 320 581 216 l 581 888 l 705 888 l 705 320 z "},"V":{"ha":761,"x_min":57,"x_max":719,"o":"m 431 -14 l 342 -14 l 57 875 l 175 907 l 396 182 l 617 907 l 719 875 l 431 -14 z "},"W":{"ha":1095,"x_min":22,"x_max":1067,"o":"m 821 -8 l 749 -8 l 552 637 l 354 -8 l 267 -8 l 22 869 l 142 895 l 327 203 l 514 882 l 602 882 l 785 205 l 974 895 l 1067 869 l 821 -8 z "},"X":{"ha":766,"x_min":50,"x_max":716,"o":"m 585 -20 l 369 365 l 176 -20 l 50 7 l 308 441 l 66 869 l 193 895 l 380 559 l 559 898 l 662 869 l 433 464 l 716 7 l 585 -20 z "},"Y":{"ha":699,"x_min":41,"x_max":656,"o":"m 411 378 l 411 0 l 286 0 l 286 378 l 41 871 l 152 903 l 353 490 l 552 903 l 656 871 l 411 378 z "},"Z":{"ha":755,"x_min":88,"x_max":669,"o":"m 224 106 l 663 106 l 663 0 l 98 0 l 88 107 l 534 798 l 111 795 l 111 887 l 656 887 l 669 788 l 224 106 z "},"[":{"ha":373,"x_min":77,"x_max":304,"o":"m 77 -159 l 77 1028 l 290 1028 l 290 958 l 191 958 l 191 -61 l 304 -61 l 304 -159 l 77 -159 z "},"\\":{"ha":534,"x_min":16,"x_max":540,"o":"m 427 -236 l 16 954 l 127 978 l 540 -213 l 427 -236 z "},"]":{"ha":369,"x_min":69,"x_max":292,"o":"m 69 -159 l 69 -61 l 182 -61 l 182 958 l 81 958 l 81 1028 l 292 1028 l 292 -159 l 69 -159 z "},"^":{"ha":743,"x_min":153,"x_max":591,"o":"m 370 822 l 212 629 l 153 701 l 370 941 l 591 701 l 533 629 l 370 822 z "},"_":{"ha":743,"x_min":7,"x_max":736,"o":"m 7 -152 l 7 -69 l 736 -69 l 736 -152 l 7 -152 z "},"`":{"ha":456,"x_min":79,"x_max":437,"o":"m 369 772 l 79 898 l 144 987 l 437 854 l 369 772 z "},"a":{"ha":681,"x_min":57,"x_max":661,"o":"m 547 -15 q 460 52 490 -15 q 388 5 418 19 q 248 -22 327 -22 q 109 34 160 -22 q 57 176 57 90 q 125 339 57 289 q 293 400 170 372 q 444 420 340 411 l 444 509 q 408 584 444 555 q 326 613 372 613 q 140 524 250 613 l 83 601 q 197 674 126 640 q 326 711 274 712 q 487 651 422 711 q 552 496 552 591 l 552 104 q 581 76 559 77 q 639 106 595 75 l 661 34 q 547 -15 614 -15 m 444 324 q 338 311 403 324 q 258 293 300 304 q 157 175 157 267 q 186 95 157 125 q 264 65 214 65 q 374 95 319 65 q 444 183 442 130 l 444 324 z "},"b":{"ha":715,"x_min":90,"x_max":669,"o":"m 378 -14 q 198 56 289 -14 l 179 0 l 90 0 l 90 972 l 198 972 l 198 623 q 372 711 293 712 q 594 602 513 711 q 669 359 667 505 q 604 102 669 199 q 378 -14 530 -14 m 370 616 q 198 515 244 616 l 198 151 q 275 98 222 117 q 366 77 323 79 q 543 355 543 77 q 509 526 543 457 q 370 616 463 616 z "},"c":{"ha":665,"x_min":54,"x_max":614,"o":"m 373 -16 q 109 123 191 -16 q 54 336 54 216 q 134 595 54 496 q 377 704 222 705 q 594 631 499 703 l 536 538 q 361 610 442 609 q 212 515 262 610 q 170 331 170 439 q 220 159 170 229 q 373 79 277 80 q 560 156 473 79 l 614 83 q 373 -16 511 -16 z "},"d":{"ha":709,"x_min":52,"x_max":623,"o":"m 623 0 l 530 0 l 514 58 q 321 -18 401 -18 q 117 100 193 -18 q 52 338 52 202 q 121 594 52 494 q 350 711 201 711 q 514 631 448 711 l 514 968 l 623 968 l 623 0 m 514 528 q 442 598 475 581 q 345 616 410 616 q 209 525 251 616 q 175 353 175 457 q 214 176 175 248 q 357 84 262 84 q 514 148 441 84 l 514 528 z "},"e":{"ha":681,"x_min":54,"x_max":631,"o":"m 172 357 q 289 99 172 151 q 385 77 335 79 q 567 167 467 77 l 623 90 q 374 -16 511 -16 q 106 125 186 -16 q 54 343 54 216 q 137 600 54 502 q 381 704 225 704 q 563 631 495 704 q 631 442 631 557 l 631 357 l 172 357 m 521 461 q 370 613 521 613 q 245 572 288 613 q 182 445 203 530 l 521 445 l 521 461 z "},"f":{"ha":449,"x_min":24,"x_max":519,"o":"m 467 905 q 347 947 401 947 q 259 887 289 948 q 239 774 239 840 l 239 688 l 431 688 l 431 597 l 239 597 l 239 0 l 133 0 l 133 597 l 24 597 l 24 688 l 133 688 l 133 779 q 183 959 133 888 q 346 1036 239 1036 q 442 1023 408 1036 q 519 975 452 1019 l 467 905 z "},"g":{"ha":709,"x_min":52,"x_max":705,"o":"m 705 553 l 557 557 q 579 465 579 510 q 509 292 579 361 q 311 214 429 214 q 220 231 243 214 q 165 156 165 197 q 218 107 165 118 q 354 102 243 102 q 548 81 496 102 q 640 -69 640 46 q 515 -258 640 -189 q 281 -317 408 -317 l 277 -317 q 126 -281 189 -317 q 52 -153 52 -235 q 148 27 52 -62 q 88 75 117 38 q 60 144 60 113 q 94 216 60 182 q 151 273 149 271 q 62 465 65 346 q 142 646 62 570 q 327 713 217 715 q 449 682 391 712 q 525 617 500 655 l 705 644 l 705 553 m 483 468 q 435 583 483 533 q 321 629 389 629 q 210 578 252 629 q 167 460 167 526 q 209 345 167 393 q 316 297 251 297 q 441 347 392 297 q 483 468 483 392 m 533 -73 q 374 16 533 18 q 237 12 312 16 q 175 -38 202 11 q 151 -118 151 -81 q 206 -208 151 -175 q 312 -232 252 -232 q 457 -193 391 -232 q 533 -73 533 -146 z "},"h":{"ha":711,"x_min":88,"x_max":624,"o":"m 515 0 l 515 452 q 484 564 515 519 q 385 616 449 616 q 267 571 331 616 q 197 472 198 524 l 197 0 l 88 0 l 88 967 l 197 967 l 197 610 q 396 709 304 711 q 559 638 494 709 q 624 469 624 567 l 624 0 l 515 0 z "},"i":{"ha":323,"x_min":88,"x_max":236,"o":"m 163 836 q 109 858 130 836 q 88 913 88 880 q 109 966 88 945 q 163 987 130 987 q 216 966 195 987 q 236 913 236 944 q 216 858 236 880 q 163 836 195 836 m 99 0 l 99 688 l 212 688 l 212 0 l 99 0 z "},"j":{"ha":323,"x_min":-18,"x_max":255,"o":"m 180 838 q 127 860 148 838 q 106 914 106 882 q 127 968 106 947 q 180 989 149 989 q 234 967 213 989 q 255 914 255 945 q 234 860 255 882 q 180 838 213 838 m 80 -152 q -18 -198 38 -183 l 26 -302 q 227 -91 225 -227 l 227 688 l 117 688 l 117 -30 q 80 -152 117 -126 z "},"k":{"ha":661,"x_min":88,"x_max":646,"o":"m 548 -35 l 244 313 l 197 267 l 197 0 l 88 0 l 88 968 l 197 968 l 197 384 l 500 724 l 594 659 l 320 378 l 646 24 l 548 -35 z "},"l":{"ha":324,"x_min":109,"x_max":217,"o":"m 217 0 l 109 0 l 109 970 l 217 970 l 217 0 z "},"m":{"ha":1077,"x_min":88,"x_max":990,"o":"m 880 0 l 880 480 q 758 616 880 614 q 662 571 720 616 q 591 448 591 517 l 591 0 l 483 0 l 483 487 q 453 578 483 543 q 369 614 423 614 q 256 564 315 614 q 197 460 197 514 l 197 0 l 88 0 l 88 688 l 197 688 l 197 590 q 392 704 302 704 q 494 668 449 704 q 563 578 540 632 q 783 711 680 711 q 929 643 868 711 q 990 487 990 575 l 990 0 l 880 0 z "},"n":{"ha":711,"x_min":88,"x_max":624,"o":"m 515 0 l 515 452 q 484 564 515 519 q 385 616 449 616 q 267 571 328 616 q 197 456 198 521 l 197 0 l 88 0 l 88 688 l 197 688 l 197 610 q 288 681 251 662 q 397 709 339 711 q 559 638 494 709 q 624 469 624 567 l 624 0 l 515 0 z "},"o":{"ha":758,"x_min":54,"x_max":704,"o":"m 382 -15 q 111 125 195 -15 q 54 350 54 221 q 167 629 54 529 q 384 711 259 711 q 595 629 507 711 q 704 350 704 529 q 640 123 704 225 q 382 -15 553 -15 m 391 618 q 222 532 281 618 q 174 342 174 457 q 220 161 174 232 q 377 75 274 76 q 537 163 484 75 q 585 349 585 236 q 541 529 585 456 q 391 618 491 618 z "},"p":{"ha":718,"x_min":88,"x_max":667,"o":"m 358 -18 q 197 61 270 -18 l 197 -274 l 88 -274 l 88 688 l 197 688 l 197 623 q 359 711 289 712 q 667 370 666 711 q 598 102 667 203 q 358 -18 518 -18 m 358 618 q 259 586 307 618 q 197 506 212 553 l 197 140 q 365 75 281 75 q 505 172 454 75 q 545 351 547 254 q 358 618 545 618 z "},"q":{"ha":709,"x_min":52,"x_max":623,"o":"m 511 -274 l 511 75 q 312 -18 382 -19 q 111 111 182 -18 q 52 357 52 217 q 113 591 52 496 q 351 711 191 712 q 439 687 392 711 q 511 632 486 663 l 511 688 l 623 688 l 623 -274 l 511 -274 m 511 507 q 452 589 496 557 q 355 620 408 620 q 208 526 254 620 q 171 345 171 456 q 216 174 171 250 q 357 84 269 84 q 511 148 430 84 l 511 507 z "},"r":{"ha":475,"x_min":88,"x_max":448,"o":"m 414 570 q 339 586 388 587 q 249 532 301 586 q 197 441 197 477 l 197 0 l 88 0 l 88 688 l 197 688 l 197 574 q 369 703 278 703 q 448 681 392 703 l 414 570 z "},"s":{"ha":606,"x_min":66,"x_max":555,"o":"m 297 -19 q 66 61 155 -19 l 122 146 q 308 76 194 77 q 399 113 357 76 q 441 195 441 149 q 331 301 441 271 q 164 354 247 323 q 83 496 84 396 q 147 656 83 597 q 312 713 212 715 q 513 650 407 712 l 476 563 q 308 625 378 625 q 187 524 187 625 q 243 449 187 468 q 444 384 281 437 q 555 221 555 332 q 483 45 555 109 q 297 -19 411 -19 z "},"t":{"ha":487,"x_min":30,"x_max":490,"o":"m 297 -11 q 176 60 220 -11 q 138 201 138 119 l 138 597 l 30 597 l 30 689 l 138 689 l 138 829 l 248 829 l 248 689 l 427 689 l 427 595 l 248 597 l 248 184 q 328 92 248 91 q 437 155 372 92 l 490 79 q 297 -11 412 -11 z "},"u":{"ha":709,"x_min":88,"x_max":620,"o":"m 620 0 l 521 0 l 506 72 q 293 -24 403 -26 q 140 53 198 -24 q 88 222 87 125 l 88 688 l 197 688 l 197 228 q 320 73 197 73 q 445 122 378 73 q 511 228 511 171 l 511 688 l 620 688 l 620 0 z "},"v":{"ha":644,"x_min":31,"x_max":614,"o":"m 362 -16 l 288 -16 l 31 665 l 140 696 l 330 160 l 509 696 l 614 665 l 362 -16 z "},"w":{"ha":1020,"x_min":38,"x_max":991,"o":"m 779 -12 l 694 -12 l 514 502 l 331 -12 l 243 -12 l 38 665 l 144 693 l 298 144 l 469 684 l 567 684 l 745 146 l 890 693 l 991 665 l 779 -12 z "},"x":{"ha":682,"x_min":26,"x_max":663,"o":"m 571 -37 l 343 264 l 119 -34 l 26 30 l 278 342 l 53 644 l 156 705 l 351 430 l 555 704 l 640 655 l 406 349 l 663 27 l 571 -37 z "},"y":{"ha":666,"x_min":31,"x_max":636,"o":"m 346 -117 q 259 -227 323 -182 q 126 -273 195 -273 q 31 -247 106 -273 l 65 -149 q 134 -168 104 -167 q 251 -75 198 -170 q 308 58 278 -8 l 42 663 l 149 693 l 358 201 l 537 692 l 636 669 l 346 -117 z "},"z":{"ha":669,"x_min":73,"x_max":610,"o":"m 73 0 l 73 92 l 391 513 q 461 597 414 545 l 88 597 l 88 686 l 590 686 l 590 589 l 285 174 q 222 98 270 153 l 610 98 l 610 0 l 73 0 z "},"{":{"ha":743,"x_min":156,"x_max":574,"o":"m 553 1039 q 473 1057 496 1057 q 392 1028 411 1057 q 366 868 368 990 q 370 777 366 837 q 373 686 373 716 q 259 483 373 586 l 259 449 q 351 336 315 408 q 388 193 388 263 q 382 80 388 155 q 377 -33 377 5 q 384 -134 377 -114 q 448 -175 397 -175 q 543 -146 509 -175 l 571 -250 q 444 -274 488 -275 q 274 -153 313 -267 q 252 71 254 -92 q 255 155 252 98 q 258 239 258 212 q 156 444 258 359 l 157 499 q 227 579 210 553 q 258 690 259 629 q 254 785 258 723 q 250 879 250 848 q 471 1158 250 1158 q 574 1143 507 1158 l 553 1039 z "},"|":{"ha":317,"x_min":118,"x_max":240,"o":"m 118 -305 l 118 952 l 240 952 l 240 -305 l 118 -305 z "},"}":{"ha":743,"x_min":180,"x_max":598,"o":"m 496 239 q 499 155 496 212 q 502 71 502 99 q 477 -157 502 -92 q 311 -274 437 -269 q 183 -250 269 -275 l 212 -146 q 307 -175 247 -176 q 378 -90 377 -175 l 378 -33 q 372 81 378 5 q 366 193 366 156 q 403 335 366 262 q 495 449 439 408 l 495 483 q 381 686 381 586 q 385 777 381 718 q 388 868 388 837 q 362 1028 388 990 q 281 1057 343 1058 q 201 1039 259 1057 l 180 1143 q 283 1158 247 1158 q 505 879 505 1158 q 500 784 505 846 q 496 690 496 722 q 528 579 496 629 q 597 499 544 553 l 598 444 q 496 239 496 359 z "},"~":{"ha":548,"x_min":115,"x_max":490,"o":"m 388 526 q 306 564 357 526 q 232 602 255 602 q 141 529 191 602 l 115 629 q 236 690 167 690 q 350 643 285 690 q 399 624 376 624 q 444 651 420 624 q 465 675 453 661 l 490 578 q 388 526 439 526 z "}," ":{"ha":378,"x_min":0,"x_max":0,"o":""},"¡":{"ha":326,"x_min":79,"x_max":239,"o":"m 95 696 l 212 696 l 212 -142 l 95 -142 l 95 696 m 159 981 q 216 958 194 981 q 239 902 239 936 q 216 844 239 867 q 159 821 193 821 q 102 844 125 821 q 79 902 79 868 q 102 958 79 936 q 159 981 125 981 z "},"¢":{"ha":665,"x_min":53,"x_max":616,"o":"m 312 -14 q 98 140 163 8 q 53 336 53 228 q 114 571 53 476 q 312 700 182 678 l 312 819 l 437 819 l 437 701 q 595 631 525 686 l 536 536 q 361 604 448 604 q 212 513 260 604 q 171 331 171 439 q 221 161 171 229 q 373 84 277 85 q 560 159 479 84 l 616 83 q 437 -12 536 4 l 437 -123 l 312 -123 l 312 -14 z "},"£":{"ha":661,"x_min":96,"x_max":614,"o":"m 591 -9 q 412 9 519 9 q 111 -19 229 9 l 96 75 q 151 94 118 80 q 174 111 159 96 q 221 237 221 157 q 201 418 221 328 l 118 418 l 118 514 l 191 514 q 171 661 171 639 q 232 841 171 770 q 401 911 293 911 q 566 867 487 911 l 524 783 q 410 822 441 823 q 305 769 346 822 q 270 655 269 722 q 293 514 270 632 l 481 514 l 481 418 l 316 418 q 326 247 324 334 q 283 106 326 140 q 435 121 393 121 q 614 98 530 121 l 591 -9 z "},"¥":{"ha":736,"x_min":46,"x_max":663,"o":"m 416 393 l 416 368 l 536 368 l 536 286 l 416 286 l 416 203 l 536 203 l 536 121 l 416 121 l 416 3 l 293 3 l 293 121 l 170 121 l 170 203 l 293 203 l 293 286 l 170 286 l 170 368 l 293 368 l 293 393 l 46 890 l 171 890 l 354 524 l 537 890 l 663 890 l 416 393 z "},"Š":{"ha":682,"x_min":56,"x_max":610,"o":"m 332 -14 q 180 14 254 -14 q 57 102 99 45 l 121 190 q 336 92 205 91 q 460 134 414 92 q 506 254 506 176 q 396 393 506 347 q 191 477 328 420 q 84 688 83 545 q 168 861 85 793 q 353 925 244 925 q 587 841 480 925 l 529 753 q 353 819 456 819 q 212 680 212 819 q 355 543 212 591 q 555 452 507 491 q 625 256 625 391 q 544 57 625 127 q 332 -14 463 -14 m 429 1066 l 620 1195 l 620 1096 l 429 940 l 231 1096 l 231 1195 l 429 1066 z "},"§":{"ha":544,"x_min":77,"x_max":446,"o":"m 258 -121 q 77 -49 151 -121 l 122 19 q 266 -43 182 -43 q 328 -19 300 -43 q 357 38 357 5 q 267 114 357 91 q 214 127 254 118 q 190 136 198 132 q 100 254 99 167 q 164 381 100 336 q 100 487 100 415 q 148 604 100 559 q 269 647 195 648 q 418 598 342 646 l 388 529 q 266 576 313 576 q 203 558 221 576 q 184 496 184 540 q 222 456 184 473 q 311 430 245 449 q 446 289 445 391 q 389 163 446 205 q 446 56 446 129 q 393 -73 446 -26 q 258 -121 340 -121 m 252 351 q 184 263 184 343 q 259 212 184 232 q 302 198 277 206 q 357 271 357 221 q 328 326 357 308 q 252 351 307 338 z "},"š":{"ha":606,"x_min":65,"x_max":555,"o":"m 297 -19 q 66 61 155 -19 l 122 146 q 308 76 194 77 q 399 113 357 76 q 441 195 441 149 q 331 301 441 271 q 164 354 247 323 q 83 496 84 396 q 147 656 83 597 q 312 713 212 715 q 513 650 407 712 l 476 563 q 308 625 378 625 q 187 524 187 625 q 243 449 187 468 q 444 384 281 437 q 555 221 555 332 q 483 45 555 109 q 297 -19 411 -19 m 373 857 l 564 986 l 564 887 l 373 731 l 175 887 l 175 986 l 373 857 z "},"©":{"ha":1105,"x_min":94,"x_max":1012,"o":"m 551 141 q 361 233 430 141 q 301 442 301 316 q 365 646 301 564 q 553 736 434 735 q 720 688 635 736 l 688 617 q 557 667 606 667 q 419 582 468 667 q 382 430 381 517 q 423 285 382 347 q 551 213 471 213 q 692 251 624 213 l 727 193 q 551 141 629 141 m 183 439 q 291 177 183 285 q 553 69 399 69 q 815 177 708 69 q 922 439 922 285 q 814 701 922 594 q 553 808 707 808 q 291 701 399 808 q 183 439 183 594 m 94 439 q 227 765 94 631 q 553 899 361 899 q 878 765 745 899 q 1012 439 1012 631 q 878 114 1012 248 q 553 -20 745 -20 q 228 114 362 -20 q 94 439 94 248 z "},"«":{"ha":541,"x_min":7,"x_max":515,"o":"m 334 397 l 515 174 l 416 170 l 205 401 l 416 627 l 515 623 l 334 397 m 137 397 l 317 174 l 221 170 l 7 401 l 221 627 l 317 623 l 137 397 z "},"¬":{"ha":850,"x_min":122,"x_max":774,"o":"m 658 39 l 658 347 l 122 347 l 122 476 l 774 476 l 774 39 l 658 39 z "},"­":{"ha":690,"x_min":72,"x_max":620,"o":"m 72 396 l 72 483 l 620 483 l 620 396 l 72 396 z "},"®":{"ha":1105,"x_min":94,"x_max":1012,"o":"m 184 439 l 183 439 q 291 177 183 285 q 553 69 399 69 q 815 177 708 69 q 922 439 922 285 q 814 701 922 594 q 553 808 707 808 q 292 701 399 808 q 184 439 184 594 m 94 439 q 227 765 94 631 q 553 899 361 899 q 878 765 745 899 q 1012 439 1012 631 q 878 114 1012 248 q 553 -20 745 -20 q 228 114 362 -20 q 94 439 94 248 m 682 151 q 488 416 605 228 l 449 415 l 449 159 l 369 159 l 369 728 q 548 731 515 731 q 703 574 704 730 q 567 422 701 448 q 662 293 620 349 q 780 168 694 251 l 682 151 m 526 677 l 449 675 l 449 475 l 507 475 q 602 498 572 475 q 631 583 631 521 q 526 677 631 678 z "},"¯":{"ha":563,"x_min":146,"x_max":471,"o":"m 146 825 l 146 916 l 471 916 l 471 825 l 146 825 z "},"°":{"ha":378,"x_min":7,"x_max":372,"o":"m 191 989 q 320 937 269 989 q 372 808 372 886 q 321 680 372 731 q 191 628 270 628 q 60 680 114 628 q 7 808 7 731 q 60 937 7 886 q 191 989 114 989 m 191 920 q 111 888 142 920 q 80 808 80 857 q 111 728 80 760 q 191 697 142 697 q 269 729 239 697 q 298 808 298 761 q 269 888 298 856 q 191 920 239 920 z "},"±":{"ha":696,"x_min":73,"x_max":620,"o":"m 388 389 l 388 132 l 301 132 l 301 388 l 73 389 l 73 475 l 301 475 l 301 718 l 388 718 l 388 475 l 620 475 l 620 389 l 388 389 m 92 16 l 92 92 l 612 92 l 612 16 l 92 16 z "},"Ž":{"ha":755,"x_min":95,"x_max":675,"o":"m 231 106 l 671 106 l 671 0 l 106 0 l 95 107 l 543 798 l 118 795 l 118 887 l 663 887 l 675 788 l 231 106 m 457 1051 l 647 1180 l 647 1082 l 457 925 l 258 1082 l 258 1180 l 457 1051 z "},"µ":{"ha":705,"x_min":95,"x_max":705,"o":"m 617 -84 q 506 84 525 -31 q 418 0 461 42 q 335 -31 380 -31 q 255 -12 294 -31 q 195 41 212 7 l 195 -273 l 95 -273 l 95 675 l 195 675 l 195 199 q 357 65 195 65 q 455 111 407 65 q 503 208 503 157 l 503 677 l 614 677 l 614 161 q 669 9 614 45 q 705 -18 696 -8 l 617 -84 z "},"¶":{"ha":704,"x_min":69,"x_max":606,"o":"m 606 0 l 511 0 l 511 891 l 606 891 l 606 0 m 412 0 l 316 0 l 316 468 l 282 468 q 69 685 68 468 q 121 844 69 798 q 286 891 172 891 l 412 891 l 412 0 z "},"·":{"ha":327,"x_min":84,"x_max":270,"o":"m 178 464 q 110 498 136 464 q 84 574 84 532 q 110 650 84 616 q 178 684 136 684 q 245 648 218 684 q 270 574 269 614 q 245 499 270 532 q 178 464 218 464 z "},"ž":{"ha":669,"x_min":80,"x_max":617,"o":"m 80 0 l 80 92 l 399 513 q 468 597 420 543 l 95 597 l 95 686 l 597 686 l 597 589 l 292 174 q 229 98 277 153 l 617 98 l 617 0 l 80 0 m 426 857 l 617 986 l 617 887 l 426 731 l 228 887 l 228 986 l 426 857 z "},"»":{"ha":545,"x_min":3,"x_max":511,"o":"m 298 170 l 199 174 l 382 397 l 199 623 l 298 627 l 511 401 l 298 170 m 103 170 l 3 174 l 184 397 l 3 623 l 103 627 l 313 401 l 103 170 z "},"Œ":{"ha":1427,"x_min":58,"x_max":1339,"o":"m 846 0 l 846 309 q 457 -4 723 -4 q 156 141 263 -4 q 58 473 58 271 q 167 785 58 662 q 465 913 279 913 q 846 624 723 913 l 846 902 l 1339 902 l 1339 802 l 971 802 l 971 533 l 1325 533 l 1325 429 l 967 429 l 968 117 l 1339 117 l 1339 0 l 846 0 m 464 807 q 247 699 328 807 q 175 460 175 600 q 245 221 175 324 q 457 104 326 104 q 673 220 587 104 q 749 460 749 326 q 678 697 749 600 q 464 807 598 807 z "},"œ":{"ha":1293,"x_min":54,"x_max":1241,"o":"m 391 618 q 222 532 281 618 q 174 342 174 457 q 220 161 174 232 q 377 75 274 76 q 537 163 484 75 q 585 349 585 236 q 541 529 585 456 q 391 618 491 618 m 784 357 q 901 99 784 151 q 996 77 947 79 q 1177 167 1077 77 l 1233 90 q 986 -16 1122 -16 q 682 213 741 -16 q 382 -15 606 -15 q 111 125 195 -15 q 54 350 54 221 q 167 629 54 529 q 384 711 259 711 q 572 648 491 711 q 686 483 654 586 q 800 646 720 589 q 991 704 880 704 q 1173 631 1105 704 q 1241 442 1241 557 l 1241 357 l 784 357 m 1133 461 q 982 613 1133 613 q 857 572 899 613 q 793 445 814 530 l 1133 445 l 1133 461 z "},"Ÿ":{"ha":669,"x_min":47,"x_max":663,"o":"m 418 378 l 418 0 l 294 0 l 294 378 l 47 871 l 159 903 l 359 490 l 559 903 l 663 871 l 418 378 m 522 967 q 472 987 491 967 q 453 1039 453 1008 q 472 1090 453 1070 q 522 1111 491 1111 q 572 1089 552 1111 q 591 1039 591 1067 q 572 987 591 1008 q 522 967 553 967 m 231 967 q 180 987 199 967 q 161 1039 161 1008 q 180 1090 161 1070 q 231 1111 199 1111 q 280 1089 260 1111 q 300 1039 300 1067 q 281 987 300 1008 q 231 967 262 967 z "},"¿":{"ha":637,"x_min":47,"x_max":567,"o":"m 152 308 q 259 665 283 403 l 370 665 q 381 559 380 613 q 270 252 381 349 q 194 184 208 198 q 156 96 155 141 q 195 -4 156 35 q 294 -43 233 -43 q 472 100 425 -43 l 567 53 q 300 -142 486 -142 q 121 -75 194 -142 q 47 98 47 -8 q 152 308 47 235 m 313 945 q 370 923 347 945 q 392 867 392 901 q 370 810 392 833 q 313 787 347 787 q 256 810 279 787 q 232 867 232 833 q 255 924 232 902 q 313 945 278 945 z "},"À":{"ha":804,"x_min":49,"x_max":754,"o":"m 636 -14 l 555 248 l 241 248 l 163 -14 l 49 0 l 343 909 l 456 909 l 754 5 l 636 -14 m 399 765 l 271 345 l 526 345 l 399 765 m 507 952 l 217 1078 l 282 1168 l 574 1035 l 507 952 z "},"Á":{"ha":788,"x_min":49,"x_max":754,"o":"m 636 -14 l 555 248 l 241 248 l 163 -14 l 49 0 l 343 909 l 456 909 l 754 5 l 636 -14 m 399 765 l 271 345 l 526 345 l 399 765 m 282 954 l 217 1036 l 509 1169 l 574 1080 l 282 954 z "},"Â":{"ha":788,"x_min":49,"x_max":754,"o":"m 636 -14 l 555 248 l 241 248 l 163 -14 l 49 0 l 343 909 l 456 909 l 754 5 l 636 -14 m 399 765 l 271 345 l 526 345 l 399 765 m 393 1040 l 203 911 l 203 1009 l 393 1166 l 590 1009 l 590 911 l 393 1040 z "},"Ã":{"ha":804,"x_min":49,"x_max":754,"o":"m 636 -14 l 555 248 l 241 248 l 163 -14 l 49 0 l 343 909 l 456 909 l 754 5 l 636 -14 m 399 765 l 271 345 l 526 345 l 399 765 m 506 929 q 404 977 471 929 q 317 1025 336 1025 q 221 967 263 1025 l 183 1048 q 242 1097 202 1078 q 317 1118 282 1116 q 416 1072 353 1119 q 503 1024 479 1024 q 572 1058 538 1024 l 609 975 q 561 945 597 960 q 506 929 525 929 z "},"Ä":{"ha":804,"x_min":49,"x_max":754,"o":"m 636 -14 l 555 248 l 241 248 l 163 -14 l 49 0 l 343 909 l 456 909 l 754 5 l 636 -14 m 399 765 l 271 345 l 526 345 l 399 765 m 551 964 q 480 1036 481 964 q 500 1087 480 1067 q 551 1107 519 1107 q 600 1086 581 1107 q 620 1036 620 1065 q 601 985 620 1005 q 551 964 582 964 m 258 964 q 189 1036 189 964 q 208 1087 189 1067 q 258 1107 228 1107 q 308 1086 288 1107 q 328 1036 328 1065 q 309 985 328 1005 q 258 964 289 964 z "},"Å":{"ha":804,"x_min":49,"x_max":754,"o":"m 636 -14 l 555 248 l 241 248 l 163 -14 l 49 0 l 343 909 l 456 909 l 754 5 l 636 -14 m 399 765 l 271 345 l 526 345 l 399 765 m 407 952 q 317 986 353 952 q 281 1074 281 1020 q 317 1160 281 1127 q 407 1194 353 1194 q 497 1160 461 1194 q 533 1074 533 1126 q 497 986 533 1020 q 407 952 461 952 m 407 1134 q 347 1074 347 1134 q 407 1012 347 1013 q 467 1074 467 1012 q 407 1134 467 1134 z "},"Æ":{"ha":1196,"x_min":41,"x_max":1142,"o":"m 391 765 l 264 345 l 519 345 l 391 765 m 766 789 l 766 521 l 1116 521 l 1116 416 l 766 418 l 766 106 l 1138 107 l 1138 0 l 624 0 l 547 248 l 235 248 l 155 -14 l 41 0 l 336 909 l 448 909 l 643 315 l 643 888 l 1142 888 l 1142 789 l 766 789 z "},"Ç":{"ha":791,"x_min":52,"x_max":713,"o":"m 483 -304 q 362 -237 393 -304 l 414 -190 q 484 -235 453 -235 q 533 -187 533 -235 q 487 -133 533 -133 q 439 -155 468 -133 l 374 -125 l 382 -7 q 129 157 220 14 q 52 457 52 282 q 149 774 52 647 q 442 917 258 914 q 597 887 510 917 q 705 841 661 865 l 652 731 q 449 808 526 808 q 235 677 312 808 q 175 441 175 572 q 239 213 175 311 q 438 100 312 100 q 661 160 556 100 l 713 69 q 589 11 633 26 q 461 -11 532 -8 l 457 -65 q 491 -60 469 -60 q 581 -94 545 -60 q 617 -183 617 -129 q 578 -271 617 -239 q 483 -304 540 -304 z "},"È":{"ha":678,"x_min":95,"x_max":593,"o":"m 218 789 l 218 521 l 568 521 l 568 416 l 218 418 l 218 106 l 589 107 l 589 0 l 95 0 l 95 888 l 593 888 l 593 789 l 218 789 m 464 952 l 175 1078 l 239 1168 l 532 1035 l 464 952 z "},"É":{"ha":651,"x_min":95,"x_max":593,"o":"m 218 789 l 218 521 l 568 521 l 568 416 l 218 418 l 218 106 l 589 107 l 589 0 l 95 0 l 95 888 l 593 888 l 593 789 l 218 789 m 239 954 l 175 1036 l 467 1169 l 532 1080 l 239 954 z "},"Ê":{"ha":678,"x_min":95,"x_max":593,"o":"m 218 789 l 218 521 l 568 521 l 568 416 l 218 418 l 218 106 l 589 107 l 589 0 l 95 0 l 95 888 l 593 888 l 593 789 l 218 789 m 350 1040 l 159 911 l 159 1009 l 350 1166 l 547 1009 l 547 911 l 350 1040 z "},"Ë":{"ha":678,"x_min":95,"x_max":593,"o":"m 218 789 l 218 521 l 568 521 l 568 416 l 218 418 l 218 106 l 589 107 l 589 0 l 95 0 l 95 888 l 593 888 l 593 789 l 218 789 m 507 967 q 457 987 476 967 q 438 1039 438 1008 q 457 1090 438 1070 q 507 1111 476 1111 q 557 1089 537 1111 q 576 1039 576 1067 q 557 987 576 1008 q 507 967 538 967 m 217 967 q 167 987 186 967 q 148 1039 148 1008 q 167 1090 148 1070 q 217 1111 186 1111 q 267 1090 248 1111 q 285 1039 285 1069 q 267 987 285 1008 q 217 967 248 967 z "},"Ì":{"ha":298,"x_min":-15,"x_max":342,"o":"m 95 0 l 95 891 l 218 891 l 218 0 l 95 0 m 275 952 l -15 1078 l 50 1168 l 342 1035 l 275 952 z "},"Í":{"ha":298,"x_min":-15,"x_max":342,"o":"m 95 0 l 95 891 l 218 891 l 218 0 l 95 0 m 50 954 l -15 1036 l 277 1169 l 342 1080 l 50 954 z "},"Î":{"ha":298,"x_min":-31,"x_max":357,"o":"m 95 0 l 95 891 l 218 891 l 218 0 l 95 0 m 160 1040 l -31 911 l -31 1009 l 160 1166 l 357 1009 l 357 911 l 160 1040 z "},"Ï":{"ha":298,"x_min":-57,"x_max":372,"o":"m 95 0 l 95 891 l 218 891 l 218 0 l 95 0 m 302 967 q 252 987 271 967 q 233 1039 233 1008 q 253 1090 233 1070 q 302 1111 273 1111 q 352 1089 332 1111 q 372 1039 372 1067 q 353 987 372 1008 q 302 967 334 967 m 12 967 q -38 987 -19 967 q -57 1039 -57 1008 q -37 1090 -57 1070 q 12 1111 -18 1111 q 62 1090 43 1111 q 80 1039 80 1069 q 62 987 80 1008 q 12 967 43 967 z "},"Ð":{"ha":784,"x_min":8,"x_max":741,"o":"m 212 465 l 305 465 l 305 370 l 212 370 l 212 103 l 336 103 q 541 206 468 103 q 609 433 608 298 q 327 810 609 810 q 212 807 286 810 l 212 465 m 8 465 l 88 465 l 88 894 q 290 899 184 898 q 632 792 525 899 q 741 449 739 685 q 629 115 742 232 q 298 -3 515 -3 q 193 0 263 -3 q 88 3 122 3 l 88 370 l 8 370 l 8 465 z "},"Ñ":{"ha":791,"x_min":95,"x_max":728,"o":"m 640 -15 q 210 644 515 210 l 210 1 l 95 0 l 95 894 l 197 894 l 614 263 l 614 888 l 728 888 l 728 15 l 640 -15 m 534 916 q 432 963 499 916 q 347 1010 365 1010 q 250 952 293 1010 l 213 1035 q 271 1084 232 1065 q 347 1104 311 1103 q 446 1057 382 1105 q 532 1009 509 1009 q 601 1044 567 1009 l 637 962 q 589 931 625 947 q 534 916 553 916 z "},"Ò":{"ha":894,"x_min":52,"x_max":859,"o":"m 450 -22 q 149 119 256 -22 q 52 448 52 245 q 160 762 52 636 q 460 898 274 897 q 755 762 644 898 q 859 448 859 636 q 757 117 859 247 q 450 -22 646 -22 m 457 795 q 239 680 321 795 q 167 435 167 576 q 239 197 167 300 q 450 84 319 84 q 667 195 582 84 q 745 433 745 298 q 673 678 745 572 q 457 795 591 795 m 567 952 l 277 1078 l 342 1168 l 633 1035 l 567 952 z "},"Ó":{"ha":894,"x_min":52,"x_max":859,"o":"m 450 -22 q 149 119 256 -22 q 52 448 52 245 q 160 762 52 636 q 460 898 274 897 q 755 762 644 898 q 859 448 859 636 q 757 117 859 247 q 450 -22 646 -22 m 457 795 q 239 680 321 795 q 167 435 167 576 q 239 197 167 300 q 450 84 319 84 q 667 195 582 84 q 745 433 745 298 q 673 678 745 572 q 457 795 591 795 m 342 954 l 277 1036 l 568 1169 l 633 1080 l 342 954 z "},"Ô":{"ha":894,"x_min":52,"x_max":859,"o":"m 450 -22 q 149 119 256 -22 q 52 448 52 245 q 160 762 52 636 q 460 898 274 897 q 755 762 644 898 q 859 448 859 636 q 757 117 859 247 q 450 -22 646 -22 m 457 795 q 239 680 321 795 q 167 435 167 576 q 239 197 167 300 q 450 84 319 84 q 667 195 582 84 q 745 433 745 298 q 673 678 745 572 q 457 795 591 795 m 463 1054 l 271 925 l 271 1024 l 463 1180 l 659 1024 l 659 925 l 463 1054 z "},"Õ":{"ha":899,"x_min":52,"x_max":859,"o":"m 450 -22 q 149 119 256 -22 q 52 448 52 245 q 160 762 52 636 q 460 898 274 897 q 755 762 644 898 q 859 448 859 636 q 757 117 859 247 q 450 -22 646 -22 m 457 795 q 239 680 321 795 q 167 435 167 576 q 239 197 167 300 q 450 84 319 84 q 667 195 582 84 q 745 433 745 298 q 673 678 745 572 q 457 795 591 795 m 534 929 q 432 977 499 929 q 347 1025 365 1025 q 250 967 293 1025 l 213 1048 q 271 1097 232 1078 q 347 1118 311 1116 q 446 1072 382 1119 q 532 1024 509 1024 q 601 1058 567 1024 l 637 975 q 589 945 625 960 q 534 929 553 929 z "},"Ö":{"ha":899,"x_min":52,"x_max":859,"o":"m 450 -22 q 149 119 256 -22 q 52 448 52 245 q 160 762 52 636 q 460 898 274 897 q 755 762 644 898 q 859 448 859 636 q 757 117 859 247 q 450 -22 646 -22 m 457 795 q 239 680 321 795 q 167 435 167 576 q 239 197 167 300 q 450 84 319 84 q 667 195 582 84 q 745 433 745 298 q 673 678 745 572 q 457 795 591 795 m 610 967 q 559 987 579 967 q 540 1039 540 1008 q 559 1090 540 1070 q 610 1111 579 1111 q 660 1089 640 1111 q 680 1039 680 1067 q 661 987 680 1008 q 610 967 642 967 m 317 967 q 267 987 286 967 q 248 1039 248 1008 q 268 1090 248 1070 q 317 1111 288 1111 q 368 1089 347 1111 q 388 1039 388 1067 q 368 987 388 1008 q 317 967 349 967 z "},"Ø":{"ha":894,"x_min":45,"x_max":852,"o":"m 301 129 l 503 789 q 450 795 481 795 q 232 680 315 795 q 160 435 160 576 q 194 264 160 343 q 301 129 232 178 m 606 741 l 407 88 q 444 84 431 85 q 659 195 575 84 q 738 433 736 298 q 606 741 736 636 m 552 947 l 659 914 l 640 850 q 802 680 746 792 q 852 448 852 575 q 749 118 852 248 q 444 -22 637 -22 q 374 -16 404 -22 l 351 -96 l 243 -62 l 267 16 q 45 448 45 126 q 153 762 45 636 q 453 898 267 897 q 533 888 496 898 l 552 947 z "},"Ù":{"ha":792,"x_min":95,"x_max":712,"o":"m 712 320 q 627 71 712 165 q 392 -23 543 -23 q 167 76 244 -23 q 95 320 95 168 l 95 888 l 218 888 l 218 320 q 396 80 218 81 q 544 153 495 80 q 587 320 587 217 l 587 888 l 712 888 l 712 320 m 509 952 l 218 1078 l 283 1168 l 575 1035 l 509 952 z "},"Ú":{"ha":792,"x_min":95,"x_max":712,"o":"m 712 320 q 627 71 712 165 q 392 -23 543 -23 q 167 76 244 -23 q 95 320 95 168 l 95 888 l 218 888 l 218 320 q 396 80 218 81 q 544 153 495 80 q 587 320 587 217 l 587 888 l 712 888 l 712 320 m 283 954 l 218 1036 l 510 1169 l 575 1080 l 283 954 z "},"Û":{"ha":792,"x_min":95,"x_max":712,"o":"m 712 320 q 627 71 712 165 q 392 -23 543 -23 q 167 76 244 -23 q 95 320 95 168 l 95 888 l 218 888 l 218 320 q 396 80 218 81 q 544 153 495 80 q 587 320 587 217 l 587 888 l 712 888 l 712 320 m 393 1054 l 201 925 l 201 1024 l 393 1180 l 590 1024 l 590 925 l 393 1054 z "},"Ü":{"ha":723,"x_min":95,"x_max":712,"o":"m 712 320 q 627 71 712 165 q 392 -23 543 -23 q 167 76 244 -23 q 95 320 95 168 l 95 888 l 218 888 l 218 320 q 396 80 218 81 q 544 153 495 80 q 587 320 587 217 l 587 888 l 712 888 l 712 320 m 536 967 q 486 987 505 967 q 467 1039 467 1008 q 486 1090 467 1070 q 536 1111 506 1111 q 585 1089 566 1111 q 605 1039 605 1067 q 586 987 605 1008 q 536 967 567 967 m 245 967 q 195 987 214 967 q 176 1039 176 1008 q 196 1090 176 1070 q 245 1111 216 1111 q 295 1090 277 1111 q 313 1039 313 1069 q 295 987 313 1008 q 245 967 277 967 z "},"Ý":{"ha":699,"x_min":47,"x_max":663,"o":"m 418 378 l 418 0 l 294 0 l 294 378 l 47 871 l 159 903 l 359 490 l 559 903 l 663 871 l 418 378 m 269 871 l 205 952 l 496 1086 l 562 996 l 269 871 z "},"Þ":{"ha":754,"x_min":83,"x_max":686,"o":"m 388 201 q 199 263 290 201 l 199 -151 l 83 -151 l 83 972 l 199 972 l 199 837 q 385 939 266 939 q 612 823 528 939 q 686 572 685 720 q 621 312 688 408 q 388 201 544 201 m 358 831 q 199 730 248 831 l 199 380 q 381 296 252 297 q 528 381 481 296 q 567 556 567 449 q 521 743 567 669 q 358 831 465 831 z "},"ß":{"ha":762,"x_min":73,"x_max":699,"o":"m 464 -20 q 324 -1 378 -20 q 209 80 260 22 l 267 171 q 349 99 307 117 q 457 81 387 83 q 546 112 507 81 q 585 191 585 142 q 476 300 585 263 q 363 335 438 311 q 228 500 228 381 q 284 659 228 604 q 444 713 340 713 q 498 709 471 713 q 515 747 515 736 q 457 869 515 831 q 346 902 407 902 q 225 857 269 902 q 182 735 182 812 l 182 0 l 73 0 l 73 735 q 353 993 73 993 q 547 930 472 993 q 625 746 624 864 q 575 594 625 678 q 442 621 511 616 q 366 595 397 624 q 334 521 334 566 q 372 464 334 487 q 468 426 396 449 q 578 391 517 411 q 671 319 644 363 q 699 199 699 274 q 628 43 699 107 q 464 -20 557 -20 z "},"à":{"ha":681,"x_min":64,"x_max":669,"o":"m 555 -15 q 467 52 498 -15 q 396 5 420 16 q 255 -22 336 -22 q 115 34 167 -22 q 64 176 64 90 q 132 339 64 289 q 300 400 176 372 q 450 420 347 411 l 450 509 q 415 584 450 555 q 332 613 380 613 q 148 524 256 613 l 91 601 q 205 674 134 640 q 332 711 282 712 q 494 651 429 711 q 559 496 559 591 l 559 104 q 587 76 566 77 q 646 106 602 75 l 669 34 q 555 -15 623 -15 m 450 324 q 345 311 407 324 q 266 293 326 307 q 165 175 167 269 q 193 95 165 125 q 271 65 221 65 q 382 95 326 65 q 450 183 450 130 l 450 324 m 479 772 l 189 898 l 254 987 l 545 854 l 479 772 z "},"á":{"ha":681,"x_min":64,"x_max":669,"o":"m 555 -15 q 467 52 498 -15 q 396 5 420 16 q 255 -22 336 -22 q 115 34 167 -22 q 64 176 64 90 q 132 339 64 289 q 300 400 176 372 q 450 420 347 411 l 450 509 q 415 584 450 555 q 332 613 380 613 q 148 524 256 613 l 91 601 q 205 674 134 640 q 332 711 282 712 q 494 651 429 711 q 559 496 559 591 l 559 104 q 587 76 566 77 q 646 106 602 75 l 669 34 q 555 -15 623 -15 m 450 324 q 345 311 407 324 q 266 293 326 307 q 165 175 167 269 q 193 95 165 125 q 271 65 221 65 q 382 95 326 65 q 450 183 450 130 l 450 324 m 254 773 l 189 856 l 480 989 l 545 899 l 254 773 z "},"â":{"ha":681,"x_min":64,"x_max":669,"o":"m 555 -15 q 467 52 498 -15 q 396 5 420 16 q 255 -22 336 -22 q 115 34 167 -22 q 64 176 64 90 q 132 339 64 289 q 300 400 176 372 q 450 420 347 411 l 450 509 q 415 584 450 555 q 332 613 380 613 q 148 524 256 613 l 91 601 q 205 674 134 640 q 332 711 282 712 q 494 651 429 711 q 559 496 559 591 l 559 104 q 587 76 566 77 q 646 106 602 75 l 669 34 q 555 -15 623 -15 m 450 324 q 345 311 407 324 q 266 293 326 307 q 165 175 167 269 q 193 95 165 125 q 271 65 221 65 q 382 95 326 65 q 450 183 450 130 l 450 324 m 350 860 l 159 731 l 159 829 l 350 986 l 547 829 l 547 731 l 350 860 z "},"ã":{"ha":681,"x_min":64,"x_max":669,"o":"m 555 -15 q 467 52 498 -15 q 396 5 420 16 q 255 -22 336 -22 q 115 34 167 -22 q 64 176 64 90 q 132 339 64 289 q 300 400 176 372 q 450 420 347 411 l 450 509 q 415 584 450 555 q 332 613 380 613 q 148 524 256 613 l 91 601 q 205 674 134 640 q 332 711 282 712 q 494 651 429 711 q 559 496 559 591 l 559 104 q 587 76 566 77 q 646 106 602 75 l 669 34 q 555 -15 623 -15 m 450 324 q 345 311 407 324 q 266 293 326 307 q 165 175 167 269 q 193 95 165 125 q 271 65 221 65 q 382 95 326 65 q 450 183 450 130 l 450 324 m 433 762 q 329 810 396 762 q 244 859 262 859 q 148 800 190 859 l 111 882 q 170 929 130 909 q 244 951 210 949 q 343 905 279 952 q 430 857 407 857 q 500 891 463 857 l 536 808 q 488 779 524 795 q 433 762 452 762 z "},"ä":{"ha":681,"x_min":64,"x_max":669,"o":"m 555 -15 q 467 52 498 -15 q 396 5 420 16 q 255 -22 336 -22 q 115 34 167 -22 q 64 176 64 90 q 132 339 64 289 q 300 400 176 372 q 450 420 347 411 l 450 509 q 415 584 450 555 q 332 613 380 613 q 148 524 256 613 l 91 601 q 205 674 134 640 q 332 711 282 712 q 494 651 429 711 q 559 496 559 591 l 559 104 q 587 76 566 77 q 646 106 602 75 l 669 34 q 555 -15 623 -15 m 450 324 q 345 311 407 324 q 266 293 326 307 q 165 175 167 269 q 193 95 165 125 q 271 65 221 65 q 382 95 326 65 q 450 183 450 130 l 450 324 m 494 758 q 443 779 463 758 q 423 830 423 800 q 443 882 423 861 q 494 903 463 903 q 543 882 524 903 q 563 830 563 860 q 544 779 563 799 q 494 758 525 758 m 201 758 q 151 779 170 758 q 132 830 132 800 q 151 882 132 861 q 201 903 171 903 q 251 882 231 903 q 271 830 271 860 q 252 779 271 799 q 201 758 232 758 z "},"å":{"ha":681,"x_min":64,"x_max":669,"o":"m 555 -15 q 467 52 498 -15 q 396 5 420 16 q 255 -22 336 -22 q 115 34 167 -22 q 64 176 64 90 q 132 339 64 289 q 300 400 176 372 q 450 420 347 411 l 450 509 q 415 584 450 555 q 332 613 380 613 q 148 524 256 613 l 91 601 q 205 674 134 640 q 332 711 282 712 q 494 651 429 711 q 559 496 559 591 l 559 104 q 587 76 566 77 q 646 106 602 75 l 669 34 q 555 -15 623 -15 m 450 324 q 345 311 407 324 q 266 293 326 307 q 165 175 167 269 q 193 95 165 125 q 271 65 221 65 q 382 95 326 65 q 450 183 450 130 l 450 324 m 334 787 q 244 820 279 787 q 209 907 209 853 q 244 994 209 960 q 334 1027 279 1027 q 424 994 388 1027 q 460 907 460 962 q 425 820 460 853 q 334 787 389 787 m 334 967 q 275 907 275 967 q 334 846 275 846 q 393 907 393 846 q 334 967 393 967 z "},"æ":{"ha":1076,"x_min":57,"x_max":1024,"o":"m 914 461 q 764 613 914 613 q 620 563 662 613 q 562 416 587 525 l 914 416 l 914 461 m 460 52 q 388 5 437 35 q 248 -22 327 -22 q 109 34 160 -22 q 57 176 57 90 q 125 339 57 289 q 293 400 168 372 q 444 425 370 418 l 444 509 q 408 584 444 555 q 326 613 372 613 q 140 524 250 613 l 83 601 q 197 674 123 637 q 326 711 277 712 q 528 595 468 711 q 774 704 618 704 q 959 613 886 704 q 1024 414 1024 530 l 1024 330 l 552 330 q 586 174 552 239 q 670 102 609 127 q 779 77 723 79 q 876 109 819 77 q 962 167 925 133 l 1017 90 q 768 -16 903 -16 q 514 102 594 -16 l 460 52 m 444 324 q 327 307 411 324 q 214 277 237 289 q 157 175 157 245 q 264 65 157 65 q 374 95 319 65 q 444 183 442 130 l 444 324 z "},"ç":{"ha":670,"x_min":61,"x_max":621,"o":"m 410 -304 q 290 -237 321 -304 l 342 -190 q 411 -235 381 -235 q 461 -187 461 -235 q 414 -133 461 -133 q 366 -155 395 -133 l 301 -125 l 308 -9 q 104 144 168 15 q 61 336 61 232 q 141 595 61 495 q 384 704 229 705 q 601 631 506 703 l 543 538 q 369 610 450 609 q 218 515 269 610 q 176 331 178 441 q 227 159 175 229 q 381 79 283 80 q 567 156 481 79 l 621 83 q 388 -16 521 -15 l 384 -65 q 418 -60 396 -60 q 507 -95 471 -60 q 544 -183 544 -130 q 505 -271 544 -239 q 410 -304 467 -304 z "},"è":{"ha":689,"x_min":61,"x_max":637,"o":"m 179 357 q 297 99 179 152 q 393 77 343 79 q 575 167 475 77 l 629 90 q 382 -16 518 -16 q 113 125 194 -16 q 61 343 61 216 q 144 600 61 502 q 388 704 232 704 q 570 631 502 704 q 637 442 637 557 l 637 357 l 179 357 m 528 461 q 378 613 528 613 q 250 570 296 613 q 189 445 210 530 l 528 445 l 528 461 m 494 772 l 205 898 l 269 987 l 562 854 l 494 772 z "},"é":{"ha":689,"x_min":61,"x_max":637,"o":"m 179 357 q 297 99 179 152 q 393 77 343 79 q 575 167 475 77 l 629 90 q 382 -16 518 -16 q 113 125 194 -16 q 61 343 61 216 q 144 600 61 502 q 388 704 232 704 q 570 631 502 704 q 637 442 637 557 l 637 357 l 179 357 m 528 461 q 378 613 528 613 q 250 570 296 613 q 189 445 210 530 l 528 445 l 528 461 m 254 773 l 189 856 l 480 989 l 545 899 l 254 773 z "},"ê":{"ha":689,"x_min":61,"x_max":637,"o":"m 179 357 q 297 99 179 152 q 393 77 343 79 q 575 167 475 77 l 629 90 q 382 -16 518 -16 q 113 125 194 -16 q 61 343 61 216 q 144 600 61 502 q 388 704 232 704 q 570 631 502 704 q 637 442 637 557 l 637 357 l 179 357 m 528 461 q 378 613 528 613 q 250 570 296 613 q 189 445 210 530 l 528 445 l 528 461 m 380 860 l 187 731 l 187 829 l 380 986 l 576 829 l 576 731 l 380 860 z "},"ë":{"ha":689,"x_min":61,"x_max":637,"o":"m 179 357 q 297 99 179 152 q 393 77 343 79 q 575 167 475 77 l 629 90 q 382 -16 518 -16 q 113 125 194 -16 q 61 343 61 216 q 144 600 61 502 q 388 704 232 704 q 570 631 502 704 q 637 442 637 557 l 637 357 l 179 357 m 528 461 q 378 613 528 613 q 250 570 296 613 q 189 445 210 530 l 528 445 l 528 461 m 507 758 q 457 779 476 758 q 438 830 438 800 q 457 882 438 861 q 507 903 476 903 q 557 882 537 903 q 576 830 576 860 q 557 779 576 799 q 507 758 538 758 m 217 758 q 167 779 186 758 q 148 830 148 800 q 167 882 148 861 q 217 903 186 903 q 267 882 248 903 q 285 830 285 861 q 267 779 285 799 q 217 758 248 758 z "},"ì":{"ha":345,"x_min":0,"x_max":357,"o":"m 107 0 l 107 688 l 218 688 l 218 0 l 107 0 m 289 772 l 0 898 l 64 987 l 357 854 l 289 772 z "},"í":{"ha":324,"x_min":0,"x_max":357,"o":"m 107 0 l 107 688 l 218 688 l 218 0 l 107 0 m 64 773 l 0 856 l 292 989 l 357 899 l 64 773 z "},"î":{"ha":292,"x_min":-31,"x_max":357,"o":"m 107 0 l 107 688 l 218 688 l 218 0 l 107 0 m 160 860 l -31 731 l -31 829 l 160 986 l 357 829 l 357 731 l 160 860 z "},"ï":{"ha":286,"x_min":-61,"x_max":368,"o":"m 107 0 l 107 688 l 218 688 l 218 0 l 107 0 m 298 758 q 248 779 267 758 q 229 830 229 800 q 249 882 229 861 q 298 903 269 903 q 348 882 328 903 q 368 830 368 860 q 349 779 368 799 q 298 758 330 758 m 7 758 q -43 779 -24 758 q -61 830 -61 800 q -42 882 -61 861 q 7 903 -23 903 q 57 882 38 903 q 76 830 76 861 q 57 779 76 799 q 7 758 38 758 z "},"ð":{"ha":781,"x_min":45,"x_max":750,"o":"m 594 498 q 385 612 514 612 q 220 534 277 612 q 167 355 168 467 q 216 175 165 251 q 370 85 271 85 q 548 170 486 85 q 605 363 605 245 q 594 498 605 437 m 294 852 l 425 852 q 331 952 362 926 l 423 1016 q 562 852 495 947 l 750 852 l 749 755 l 618 755 q 720 425 723 566 q 640 111 718 225 q 357 -23 547 -23 q 126 90 216 -23 q 45 338 45 193 q 133 606 45 507 q 387 705 221 705 q 553 644 494 705 q 494 755 540 685 l 294 755 l 294 852 z "},"ñ":{"ha":674,"x_min":95,"x_max":632,"o":"m 522 0 l 522 452 q 491 564 522 519 q 392 616 456 616 q 274 571 335 616 q 205 456 205 521 l 205 0 l 95 0 l 95 688 l 205 688 l 205 610 q 294 681 259 662 q 404 709 346 711 q 567 638 502 709 q 632 469 632 567 l 632 0 l 522 0 m 463 762 q 358 810 426 762 q 274 859 290 859 q 176 800 220 859 l 140 882 q 199 929 159 909 q 274 951 239 949 q 373 905 309 952 q 460 857 437 857 q 529 891 492 857 l 566 808 q 517 779 553 795 q 463 762 481 762 z "},"ò":{"ha":754,"x_min":61,"x_max":712,"o":"m 389 -15 q 118 125 203 -15 q 61 350 61 220 q 174 629 61 529 q 392 711 267 711 q 604 629 515 711 q 712 350 712 530 q 648 123 712 225 q 389 -15 562 -15 m 397 618 q 229 532 288 618 q 180 342 180 457 q 227 161 180 232 q 384 75 281 76 q 544 163 491 75 q 591 349 591 236 q 548 529 591 456 q 397 618 498 618 m 537 772 l 247 898 l 312 987 l 604 854 l 537 772 z "},"ó":{"ha":754,"x_min":61,"x_max":712,"o":"m 389 -15 q 118 125 203 -15 q 61 350 61 220 q 174 629 61 529 q 392 711 267 711 q 604 629 515 711 q 712 350 712 530 q 648 123 712 225 q 389 -15 562 -15 m 397 618 q 229 532 288 618 q 180 342 180 457 q 227 161 180 232 q 384 75 281 76 q 544 163 491 75 q 591 349 591 236 q 548 529 591 456 q 397 618 498 618 m 312 773 l 247 856 l 538 989 l 604 899 l 312 773 z "},"ô":{"ha":754,"x_min":61,"x_max":712,"o":"m 389 -15 q 118 125 203 -15 q 61 350 61 220 q 174 629 61 529 q 392 711 267 711 q 604 629 515 711 q 712 350 712 530 q 648 123 712 225 q 389 -15 562 -15 m 397 618 q 229 532 288 618 q 180 342 180 457 q 227 161 180 232 q 384 75 281 76 q 544 163 491 75 q 591 349 591 236 q 548 529 591 456 q 397 618 498 618 m 393 860 l 203 731 l 203 829 l 393 986 l 590 829 l 590 731 l 393 860 z "},"õ":{"ha":754,"x_min":61,"x_max":712,"o":"m 389 -15 q 118 125 203 -15 q 61 350 61 220 q 174 629 61 529 q 392 711 267 711 q 604 629 515 711 q 712 350 712 530 q 648 123 712 225 q 389 -15 562 -15 m 397 618 q 229 532 288 618 q 180 342 180 457 q 227 161 180 232 q 384 75 281 76 q 544 163 491 75 q 591 349 591 236 q 548 529 591 456 q 397 618 498 618 m 506 762 q 404 810 471 762 q 317 859 336 859 q 221 800 263 859 l 183 882 q 242 930 202 911 q 317 951 282 949 q 416 905 353 952 q 503 857 479 857 q 572 891 538 857 l 609 808 q 561 778 597 793 q 506 762 525 762 z "},"ö":{"ha":754,"x_min":61,"x_max":712,"o":"m 389 -15 q 118 125 203 -15 q 61 350 61 220 q 174 629 61 529 q 392 711 267 711 q 604 629 515 711 q 712 350 712 530 q 648 123 712 225 q 389 -15 562 -15 m 397 618 q 229 532 288 618 q 180 342 180 457 q 227 161 180 232 q 384 75 281 76 q 544 163 491 75 q 591 349 591 236 q 548 529 591 456 q 397 618 498 618 m 536 758 q 486 779 505 758 q 467 830 467 800 q 486 882 467 861 q 536 903 506 903 q 585 882 566 903 q 605 830 605 860 q 586 779 605 799 q 536 758 567 758 m 245 758 q 195 779 214 758 q 176 830 176 800 q 196 882 176 861 q 245 903 216 903 q 295 882 277 903 q 313 830 313 861 q 295 779 313 799 q 245 758 277 758 z "},"÷":{"ha":688,"x_min":73,"x_max":620,"o":"m 366 552 q 307 578 330 552 q 283 643 283 605 q 307 708 283 681 q 366 735 331 735 q 427 708 403 735 q 450 643 450 681 q 427 578 450 605 q 366 552 403 552 m 73 382 l 73 479 l 620 479 l 620 382 l 73 382 m 366 129 q 307 156 330 129 q 283 221 283 183 q 307 286 283 259 q 366 312 331 312 q 427 285 403 312 q 450 221 450 258 q 427 156 450 183 q 366 129 403 129 z "},"ø":{"ha":758,"x_min":54,"x_max":704,"o":"m 245 127 l 395 618 l 391 618 q 222 532 281 618 q 174 342 174 457 q 245 127 174 201 m 502 578 l 349 76 q 377 75 357 75 q 537 163 484 75 q 585 349 585 236 q 502 578 585 509 m 452 803 l 560 769 l 530 675 q 704 350 704 583 q 640 123 704 225 q 382 -15 552 -15 q 323 -11 350 -15 l 296 -96 l 187 -62 l 214 23 q 92 164 134 68 q 54 350 54 247 q 167 629 54 529 q 384 711 259 711 q 422 708 397 711 l 452 803 z "},"ù":{"ha":669,"x_min":95,"x_max":627,"o":"m 627 0 l 528 0 q 514 72 524 19 q 300 -24 410 -26 q 148 53 205 -24 q 95 222 95 125 l 95 688 l 205 688 l 205 228 q 327 73 205 73 q 452 122 385 73 q 518 228 518 171 l 518 688 l 627 688 l 627 0 m 494 772 l 205 898 l 269 987 l 562 854 l 494 772 z "},"ú":{"ha":669,"x_min":95,"x_max":627,"o":"m 627 0 l 528 0 q 514 72 524 19 q 300 -24 410 -26 q 148 53 205 -24 q 95 222 95 125 l 95 688 l 205 688 l 205 228 q 327 73 205 73 q 452 122 385 73 q 518 228 518 171 l 518 688 l 627 688 l 627 0 m 254 773 l 189 856 l 480 989 l 545 899 l 254 773 z "},"û":{"ha":669,"x_min":95,"x_max":627,"o":"m 627 0 l 528 0 q 514 72 524 19 q 300 -24 410 -26 q 148 53 205 -24 q 95 222 95 125 l 95 688 l 205 688 l 205 228 q 327 73 205 73 q 452 122 385 73 q 518 228 518 171 l 518 688 l 627 688 l 627 0 m 363 860 l 174 731 l 174 829 l 363 986 l 562 829 l 562 731 l 363 860 z "},"ü":{"ha":669,"x_min":95,"x_max":627,"o":"m 627 0 l 528 0 q 514 72 524 19 q 300 -24 410 -26 q 148 53 205 -24 q 95 222 95 125 l 95 688 l 205 688 l 205 228 q 327 73 205 73 q 452 122 385 73 q 518 228 518 171 l 518 688 l 627 688 l 627 0 m 507 758 q 457 779 476 758 q 438 830 438 800 q 457 882 438 861 q 507 903 476 903 q 557 882 537 903 q 576 830 576 860 q 557 779 576 799 q 507 758 538 758 m 217 758 q 167 779 186 758 q 148 830 148 800 q 167 882 148 861 q 217 903 186 903 q 267 882 248 903 q 285 830 285 861 q 267 779 285 799 q 217 758 248 758 z "},"ý":{"ha":666,"x_min":30,"x_max":621,"o":"m 236 793 l 171 876 l 463 1009 l 529 920 l 236 793 m 346 -117 q 259 -227 323 -182 q 126 -273 195 -273 q 31 -247 106 -273 l 65 -149 q 134 -168 104 -167 q 251 -75 198 -170 q 308 58 278 -8 l 42 663 l 149 693 l 358 201 l 537 692 l 636 669 l 346 -117 z "},"þ":{"ha":724,"x_min":83,"x_max":685,"o":"m 378 -14 q 286 4 323 -14 l 203 57 l 203 -271 l 83 -271 l 83 951 l 198 951 l 198 582 q 404 694 273 694 q 616 595 540 694 q 685 366 684 506 q 618 99 686 197 q 378 -14 540 -14 m 385 597 q 278 562 328 597 q 203 473 228 526 l 205 134 q 285 92 225 107 q 378 77 334 79 q 526 171 477 77 q 566 351 566 244 q 528 518 566 454 q 385 597 481 597 z "},"ÿ":{"ha":648,"x_min":38,"x_max":643,"o":"m 353 -117 q 267 -227 330 -182 q 134 -273 203 -273 q 38 -247 113 -273 l 72 -149 q 141 -168 111 -167 q 258 -75 205 -170 q 315 58 285 -8 l 50 663 l 156 693 l 366 201 l 545 692 l 643 669 l 353 -117 m 476 758 q 426 779 445 758 q 407 830 407 800 q 427 882 407 861 q 476 903 446 903 q 526 882 506 903 q 545 830 545 860 q 526 779 545 799 q 476 758 507 758 m 186 758 q 136 779 155 758 q 117 830 117 800 q 136 882 117 861 q 186 903 156 903 q 235 882 217 903 q 254 830 254 861 q 235 779 254 799 q 186 758 217 758 z "},"†":{"ha":307,"x_min":33,"x_max":267,"o":"m 267 776 l 170 776 l 170 463 l 115 463 l 115 776 l 33 776 l 33 823 l 115 823 l 115 910 l 170 910 l 170 823 l 267 823 l 267 776 z "},"•":{"ha":391,"x_min":66,"x_max":321,"o":"m 194 264 q 102 306 137 264 q 66 404 66 347 q 102 502 66 461 q 194 543 138 543 q 286 501 250 543 q 321 404 321 460 q 286 307 321 349 q 194 264 250 264 z "},"™":{"ha":890,"x_min":20,"x_max":860,"o":"m 241 438 l 153 438 l 153 819 l 20 819 l 20 891 l 365 891 l 365 819 l 241 819 l 241 438 m 770 713 l 665 438 l 590 438 l 483 716 l 483 438 l 400 438 l 400 894 l 509 894 l 632 576 l 755 894 l 860 894 l 860 438 l 770 438 l 770 713 z "},"´":{"ha":456,"x_min":79,"x_max":437,"o":"m 144 773 l 79 856 l 370 989 l 437 899 l 144 773 z "},"¨":{"ha":425,"x_min":-7,"x_max":423,"o":"m 354 758 q 304 779 323 758 q 285 830 285 800 q 304 882 285 861 q 354 903 324 903 q 404 882 384 903 q 423 830 423 860 q 404 779 423 799 q 354 758 385 758 m 62 758 q 12 779 31 758 q -7 830 -7 800 q 13 882 -7 861 q 62 903 33 903 q 113 882 94 903 q 132 830 132 861 q 113 779 132 799 q 62 758 94 758 z "},"≠":{"ha":612,"x_min":71,"x_max":540,"o":"m 227 -20 l 141 8 l 203 187 l 71 187 l 71 278 l 233 278 l 275 399 l 71 399 l 71 488 l 307 488 l 395 742 l 479 712 l 403 488 l 540 488 l 540 399 l 370 399 l 330 278 l 540 278 l 540 187 l 298 187 l 227 -20 z "},"∞":{"ha":743,"x_min":12,"x_max":731,"o":"m 532 366 q 372 445 429 366 q 212 366 312 368 q 72 420 132 366 q 12 553 12 473 q 71 685 12 632 q 212 738 130 738 q 372 661 313 738 q 532 738 430 736 q 671 685 612 738 q 731 553 731 632 q 671 420 731 475 q 532 366 612 366 m 532 670 q 446 636 483 670 q 410 555 410 602 q 446 471 410 505 q 532 438 481 438 q 618 471 582 438 q 654 555 654 505 q 618 637 654 605 q 532 670 582 670 m 212 670 q 126 636 163 670 q 90 555 90 602 q 124 472 90 503 q 212 441 159 441 q 299 471 264 441 q 334 555 334 502 q 298 637 334 605 q 212 670 262 670 z "},"≤":{"ha":347,"x_min":26,"x_max":339,"o":"m 156 393 l 339 170 l 239 165 l 26 397 l 239 623 l 339 618 l 156 393 m 30 47 l 30 103 l 336 103 l 336 47 l 30 47 z "},"≥":{"ha":347,"x_min":27,"x_max":339,"o":"m 125 165 l 27 170 l 209 393 l 27 618 l 125 623 l 339 397 l 125 165 m 30 47 l 30 103 l 336 103 l 336 47 l 30 47 z "},"∂":{"ha":766,"x_min":60,"x_max":708,"o":"m 373 -23 q 144 80 232 -23 q 60 324 61 179 q 136 589 58 494 q 385 692 218 692 q 494 674 438 692 q 587 620 555 654 q 559 730 582 673 q 495 819 532 793 q 330 863 435 863 q 137 822 231 863 l 107 930 q 301 959 203 958 q 544 898 458 959 q 708 411 708 783 q 643 106 708 210 q 373 -23 562 -23 m 598 486 q 384 612 506 610 q 227 525 279 612 q 182 342 182 453 q 232 160 182 236 q 389 72 289 72 q 606 363 608 72 q 598 486 606 425 z "},"∑":{"ha":681,"x_min":127,"x_max":623,"o":"m 127 0 l 127 98 l 429 475 l 127 773 l 141 879 l 623 879 l 623 779 l 275 779 l 574 484 l 273 106 l 623 107 l 623 0 l 127 0 z "},"∏":{"ha":826,"x_min":171,"x_max":709,"o":"m 709 0 l 576 0 l 576 780 l 302 780 l 302 0 l 171 0 l 171 891 l 709 891 l 709 0 z "},"π":{"ha":719,"x_min":96,"x_max":642,"o":"m 519 0 l 519 614 l 274 614 l 274 0 l 152 0 l 152 614 l 96 614 l 96 705 l 642 705 l 642 0 l 519 0 z "},"∫":{"ha":420,"x_min":30,"x_max":444,"o":"m 391 849 q 324 875 357 875 q 245 831 273 875 q 224 742 224 795 q 296 425 224 658 q 369 73 369 191 q 142 -194 369 -195 q 30 -168 111 -194 l 56 -54 q 165 -80 119 -90 q 240 96 240 -66 q 167 399 240 171 q 94 743 94 627 q 326 990 94 990 q 444 954 377 990 l 391 849 z "},"Ω":{"ha":897,"x_min":56,"x_max":814,"o":"m 563 180 l 563 91 l 783 91 l 783 0 l 496 0 l 496 244 q 643 332 581 244 q 697 484 697 408 q 642 709 697 625 q 442 807 576 807 q 235 711 308 807 q 172 484 172 625 q 218 332 172 403 q 373 244 275 244 l 373 0 l 85 0 l 85 91 l 301 91 l 301 179 q 126 296 199 194 q 56 499 56 393 q 155 786 56 688 q 444 884 254 884 q 814 499 814 884 q 741 296 814 395 q 563 180 665 191 z "},"√":{"ha":699,"x_min":76,"x_max":499,"o":"m 302 -14 l 195 -14 l 76 412 l 180 468 l 240 161 l 389 887 l 499 887 l 302 -14 z "},"ƒ":{"ha":500,"x_min":35,"x_max":559,"o":"m 500 848 q 380 890 434 891 q 264 736 277 890 l 263 731 q 259 680 260 689 l 450 680 l 442 589 l 254 589 l 182 -170 l 73 -171 l 144 586 l 35 585 l 43 677 l 152 678 l 157 735 q 221 911 168 845 q 388 987 282 986 q 481 974 449 987 q 559 925 490 970 l 500 848 z "},"≈":{"ha":743,"x_min":140,"x_max":612,"o":"m 477 392 q 384 428 446 392 q 297 464 321 464 q 229 440 264 464 q 174 388 193 416 l 140 475 q 215 528 164 505 q 302 552 266 552 q 406 518 345 552 q 484 484 468 484 q 574 530 532 484 l 612 445 q 550 409 593 426 q 477 392 507 392 m 477 114 q 387 150 446 114 q 302 186 327 186 q 231 162 269 186 q 174 110 194 138 l 140 197 q 215 250 164 227 q 302 274 266 274 q 406 241 345 274 q 484 208 468 208 q 574 252 532 208 l 612 167 q 550 131 593 148 q 477 114 507 114 z "},"Δ":{"ha":956,"x_min":118,"x_max":891,"o":"m 118 0 l 458 913 l 578 913 l 891 0 l 118 0 m 518 785 l 275 77 l 735 77 l 518 785 z "},"…":{"ha":861,"x_min":83,"x_max":793,"o":"m 701 -22 q 634 5 659 -22 q 609 73 609 33 q 633 143 609 117 q 701 170 658 170 q 768 143 743 170 q 793 73 793 117 q 768 5 793 31 q 701 -22 743 -22 m 439 -22 q 372 5 397 -22 q 346 73 346 33 q 371 143 346 117 q 439 170 396 170 q 506 143 481 170 q 530 73 530 117 q 506 5 530 31 q 439 -22 481 -22 m 176 -22 q 109 5 134 -22 q 83 73 83 33 q 108 143 83 117 q 176 170 133 170 q 243 143 218 170 q 269 73 269 117 q 243 5 269 31 q 176 -22 218 -22 z "},"–":{"ha":694,"x_min":47,"x_max":647,"o":"m 47 406 l 47 505 l 647 505 l 647 406 l 47 406 z "},"—":{"ha":1389,"x_min":38,"x_max":1351,"o":"m 38 406 l 38 505 l 1351 505 l 1351 406 l 38 406 z "},"“":{"ha":614,"x_min":123,"x_max":590,"o":"m 590 983 l 529 1000 q 401 716 403 834 l 536 716 q 553 854 536 769 q 590 983 570 939 m 312 983 l 251 1000 q 123 716 125 834 l 258 716 q 275 854 258 769 q 312 983 292 939 z "},"”":{"ha":614,"x_min":43,"x_max":510,"o":"m 43 734 l 104 716 q 232 1000 231 882 l 98 1000 q 80 864 98 947 q 43 734 64 777 m 321 734 l 382 716 q 510 1000 509 882 l 374 1000 q 358 864 374 947 q 321 734 342 777 z "},"‘":{"ha":296,"x_min":69,"x_max":258,"o":"m 258 983 l 197 1000 q 69 716 71 834 l 205 716 q 221 854 205 769 q 258 983 237 939 z "},"’":{"ha":334,"x_min":65,"x_max":254,"o":"m 65 734 l 126 716 q 254 1000 252 882 l 119 1000 q 103 864 119 947 q 65 734 85 777 z "},"◊":{"ha":799,"x_min":27,"x_max":735,"o":"m 382 118 l 27 463 l 382 808 l 735 463 l 382 118 m 387 674 l 170 461 l 387 250 l 602 461 l 387 674 z "},"⁄":{"ha":745,"x_min":85,"x_max":709,"o":"m 195 92 l 85 161 l 601 817 l 709 747 l 195 92 z "},"¤":{"ha":678,"x_min":52,"x_max":586,"o":"m 562 500 l 313 500 l 313 438 l 562 438 l 562 334 l 313 334 l 313 106 l 582 107 l 582 0 l 190 0 l 190 334 l 53 334 l 52 438 l 190 438 l 190 502 l 53 502 l 52 604 l 190 604 l 190 888 l 586 888 l 586 789 l 313 789 l 313 604 l 562 604 l 562 500 z "},"‹":{"ha":442,"x_min":77,"x_max":388,"o":"m 206 397 l 388 174 l 289 170 l 77 401 l 289 627 l 388 623 l 206 397 z "},"›":{"ha":439,"x_min":65,"x_max":377,"o":"m 164 170 l 65 174 l 245 397 l 65 623 l 164 627 l 377 401 l 164 170 z "},"":{"ha":671,"x_min":24,"x_max":600,"o":"m 487 0 l 487 680 l 600 680 l 600 0 l 487 0 m 467 905 q 347 947 401 947 q 259 887 289 948 q 239 774 239 840 l 239 688 l 431 688 l 431 597 l 239 597 l 239 0 l 133 0 l 133 597 l 24 597 l 24 688 l 133 688 l 133 779 q 174 944 133 875 q 346 1039 229 1039 q 442 1027 408 1039 q 519 979 453 1021 l 467 905 z "},"":{"ha":686,"x_min":24,"x_max":618,"o":"m 618 1 l 506 1 l 506 836 q 448 887 488 854 q 347 906 418 903 q 259 846 289 907 q 239 734 237 799 q 240 682 239 704 l 431 682 l 431 590 l 243 590 l 241 0 l 133 0 l 134 589 l 24 589 l 24 681 l 134 681 l 134 738 q 183 917 134 848 q 346 997 239 997 q 424 989 399 997 q 496 952 449 982 l 506 970 l 618 970 l 618 1 z "},"‡":{"ha":307,"x_min":34,"x_max":254,"o":"m 254 552 l 168 552 l 168 340 l 117 340 l 117 552 l 34 552 l 34 585 l 117 585 l 117 762 l 34 762 l 34 796 l 117 796 l 117 910 l 168 910 l 168 796 l 254 796 l 254 762 l 168 762 l 168 585 l 254 585 l 254 552 z "},"‚":{"ha":297,"x_min":41,"x_max":228,"o":"m 134 -178 l 58 -183 q 99 -121 60 -182 q 129 -54 123 -81 q 41 46 39 -50 q 69 113 41 84 q 134 141 98 141 q 199 111 171 141 q 228 46 228 81 q 199 -73 227 -16 q 134 -178 186 -103 z "},"„":{"ha":579,"x_min":43,"x_max":510,"o":"m 43 -100 l 104 -117 q 232 167 231 49 l 98 167 q 80 31 98 114 q 43 -100 64 -57 m 321 -100 l 382 -117 q 510 167 509 49 l 374 167 q 358 31 374 114 q 321 -100 342 -57 z "},"‰":{"ha":1230,"x_min":31,"x_max":1168,"o":"m 1020 -8 q 907 41 947 -8 q 869 160 869 85 q 910 277 869 229 q 1020 326 951 326 q 1128 277 1088 326 q 1168 160 1168 229 q 1133 41 1168 85 q 1020 -8 1093 -8 m 179 570 q 69 616 107 570 q 31 738 31 663 q 71 855 31 807 q 179 903 111 903 q 288 855 247 903 q 330 738 330 807 q 292 618 330 663 q 179 570 252 570 m 635 -8 q 522 41 562 -8 q 484 160 484 85 q 526 277 484 229 q 635 326 567 326 q 743 277 703 326 q 784 160 784 229 q 747 41 784 85 q 635 -8 708 -8 m 149 -109 l 46 -73 l 570 872 l 665 836 l 149 -109 m 1019 247 q 970 216 987 247 q 956 156 956 190 q 970 98 956 121 q 1020 66 987 66 q 1067 98 1051 66 q 1084 156 1082 123 q 1067 216 1084 190 q 1019 247 1050 247 m 178 825 q 129 793 146 825 q 115 734 115 768 q 130 675 115 701 q 179 644 148 644 q 243 734 243 644 q 228 793 243 768 q 178 825 209 825 m 633 247 q 585 216 602 247 q 571 156 571 190 q 585 98 571 121 q 635 66 602 66 q 684 98 666 66 q 699 156 699 123 q 684 216 699 190 q 633 247 665 247 z "},"":{"ha":762,"x_min":47,"x_max":730,"o":"m 452 796 l 452 873 l 551 873 l 551 967 l 632 967 l 632 873 l 730 873 l 730 796 l 632 796 l 632 701 l 551 701 l 551 796 l 452 796 m 47 54 l 47 132 l 146 132 l 146 227 l 228 227 l 228 132 l 327 132 l 327 54 l 228 54 l 228 -39 l 146 -39 l 146 54 l 47 54 m 229 302 l 277 302 l 277 239 l 229 239 l 229 302 m 282 345 l 320 345 l 320 316 l 282 316 l 282 345 m 324 395 l 449 395 l 449 358 l 324 358 l 324 395 m 271 528 l 311 528 l 311 412 l 271 412 l 271 528 m 543 627 l 495 627 l 495 690 l 543 690 l 543 627 m 490 585 l 453 585 l 453 613 l 490 613 l 490 585 m 449 534 l 324 534 l 324 571 l 449 571 l 449 534 m 502 401 l 461 401 l 461 517 l 502 517 l 502 401 z "},"ı":{"ha":323,"x_min":99,"x_max":212,"o":"m 99 0 l 99 688 l 212 688 l 212 0 l 99 0 z "},"ˆ":{"ha":468,"x_min":49,"x_max":438,"o":"m 240 860 l 49 731 l 49 829 l 240 986 l 438 829 l 438 731 l 240 860 z "},"˜":{"ha":521,"x_min":60,"x_max":484,"o":"m 382 762 q 279 810 346 762 q 194 859 212 859 q 96 800 140 859 l 60 882 q 119 930 79 911 q 194 951 159 949 q 292 905 229 952 q 380 857 355 857 q 449 891 412 857 l 484 808 q 437 778 472 793 q 382 762 401 762 z "},"˘":{"ha":479,"x_min":43,"x_max":420,"o":"m 237 747 q 116 787 168 747 q 43 892 64 826 l 111 903 q 236 815 148 815 q 354 903 317 815 l 420 892 q 354 787 403 826 q 237 747 305 747 z "},"˙":{"ha":328,"x_min":104,"x_max":251,"o":"m 178 734 q 126 752 148 734 q 104 800 104 770 q 126 848 104 830 q 178 867 148 867 q 230 848 209 867 q 251 800 251 829 q 229 752 251 770 q 178 734 208 734 z "},"˚":{"ha":423,"x_min":113,"x_max":365,"o":"m 239 800 q 149 833 184 800 q 113 921 113 867 q 149 1007 113 974 q 239 1040 184 1040 q 329 1007 293 1040 q 365 921 365 974 q 329 833 365 867 q 239 800 293 800 m 239 981 q 179 921 179 981 q 239 860 179 860 q 298 921 298 860 q 239 981 298 981 z "},"¸":{"ha":283,"x_min":20,"x_max":274,"o":"m 140 -304 q 20 -237 49 -304 l 71 -190 q 141 -235 113 -235 q 191 -187 191 -235 q 144 -133 191 -133 q 96 -155 125 -133 l 33 -125 l 39 5 l 119 7 l 114 -65 q 149 -60 126 -60 q 239 -94 203 -60 q 274 -183 274 -129 q 235 -271 274 -239 q 140 -304 197 -304 z "},"˝":{"ha":502,"x_min":53,"x_max":441,"o":"m 311 779 l 224 779 l 353 937 l 441 937 l 311 779 m 140 779 l 53 779 l 182 937 l 270 937 l 140 779 z "},"ˇ":{"ha":468,"x_min":49,"x_max":438,"o":"m 247 857 l 438 986 l 438 887 l 247 731 l 49 887 l 49 986 l 247 857 z "},"Ł":{"ha":696,"x_min":8,"x_max":609,"o":"m 8 465 l 88 495 l 88 890 l 212 890 l 212 541 l 305 576 l 305 468 l 212 433 l 212 100 l 609 100 l 609 0 l 88 0 l 88 387 l 8 357 l 8 465 z "},"ł":{"ha":391,"x_min":20,"x_max":339,"o":"m 231 503 l 232 0 l 110 0 l 109 441 l 20 396 l 22 505 l 110 548 l 110 891 l 232 891 l 232 612 l 338 665 l 339 557 l 231 503 z "},"¦":{"ha":252,"x_min":75,"x_max":182,"o":"m 75 -24 l 75 355 l 182 355 l 182 -24 l 75 -24 m 75 530 l 75 911 l 182 911 l 182 530 l 75 530 z "}}}
